<?xml version="1.0" encoding="UTF-8" standalone="no"?>
<!-- Created with Inkscape (http://www.inkscape.org/) -->

<svg
   width="210mm"
   height="210mm"
   viewBox="0 0 210 210"
   version="1.1"
   id="svg5303"
   inkscape:version="1.2.2 (732a01da63, 2022-12-09, custom)"
   sodipodi:docname="planetaBloqueado.svg"
   xmlns:inkscape="http://www.inkscape.org/namespaces/inkscape"
   xmlns:sodipodi="http://sodipodi.sourceforge.net/DTD/sodipodi-0.dtd"
   xmlns="http://www.w3.org/2000/svg"
   xmlns:svg="http://www.w3.org/2000/svg">
  <sodipodi:namedview
     id="namedview5305"
     pagecolor="#ffffff"
     bordercolor="#000000"
     borderopacity="0.25"
     inkscape:showpageshadow="2"
     inkscape:pageopacity="0.0"
     inkscape:pagecheckerboard="true"
     inkscape:deskcolor="#d1d1d1"
     inkscape:document-units="mm"
     showgrid="false"
     inkscape:zoom="0.47037037"
     inkscape:cx="350.7874"
     inkscape:cy="346.53543"
     inkscape:window-width="1366"
     inkscape:window-height="705"
     inkscape:window-x="0"
     inkscape:window-y="0"
     inkscape:window-maximized="1"
     inkscape:current-layer="layer1" />
  <defs
     id="defs5300" />
  <g
     inkscape:label="planeta"
     inkscape:groupmode="layer"
     id="layer1">
    <ellipse
       style="fill:#2d2d2d;fill-opacity:1;stroke:#4f3bf0;stroke-width:0.277358;stroke-opacity:1"
       id="path1967"
       cx="104.33134"
       cy="103.70048"
       rx="73.21994"
       ry="72.531395" />
  </g>
  <g
     inkscape:groupmode="layer"
     id="layer4"
     inkscape:label="terraB"
     transform="translate(-3.7454925,-4.3581335)"
     style="fill:#6b6b6b;fill-opacity:1">
    <path
       style="opacity:1;fill:#6b6b6b;fill-opacity:1;stroke-width:0.238443"
       d="m 94.096764,160.35667 c 1.230351,0.19732 0.928601,1.36788 1.560721,1.73282 0.37262,0.21509 1.1171,-0.5135 1.39228,-0.6791 0.75478,-0.45397 2.22024,0.21197 2.84782,-0.56486 0.329625,-0.40807 0.507435,-1.11147 0.787715,-1.59651 0.14616,-0.25306 0.26797,-0.55341 0.46964,-0.70959 0.5846,-0.13635 2.01384,-0.0521 2.44417,-0.57061 0.11543,-0.13912 0.007,-0.5069 0.10346,-0.6363 0.18247,-0.24765 2.69088,0.22769 3.18905,-0.008 0.33745,-0.32148 0.47746,-0.39877 0.88875,-0.72907 0.45767,0.90706 0.84146,1.42578 1.29457,2.44666 2.89358,-1.42364 3.25256,-1.51867 6.28809,0.12502 0.35734,0.19348 0.92908,-0.88782 1.09979,-1.16029 0.52086,-0.8314 1.32911,0.60933 1.66299,0.47223 0.3158,-0.1298 0.58439,-0.78827 0.89995,-0.97586 0.42552,-0.253 2.30873,-0.94709 2.68923,-0.15674 0.36513,0.75855 0.92286,4.8625 0.92154,5.72038 1.12661,-0.28998 0.78818,-1.62938 2.14331,-1.88377 0.38516,-0.0723 -0.23764,-1.23225 -0.22536,-1.82008 0.009,-0.47153 1.09785,-0.99018 1.46932,-0.91698 0.68058,0.13402 2.00077,1.83542 2.59838,0.8614 0.74421,-1.21295 -0.70492,-3.77313 0.89556,-4.14676 1.88718,-0.44055 1.39663,3.33611 2.05955,4.66376 0.87235,1.74725 1.47756,2.02324 1.04802,4.09645 -0.15911,0.76797 0.22628,1.88426 0.19183,2.7343 -0.0931,2.29506 -4.45594,1.96823 -5.28781,1.14771 -0.31262,-0.30835 -2.35984,1.66879 -2.83616,1.77999 -0.75201,0.17556 -2.49978,-0.39768 -3.02747,0.28895 -1.02898,1.33893 -2.86317,2.3605 -4.4273,1.45537 -1.08369,2.1677 -8.3092,6.1101 -10.04007,5.82775 -0.33062,-0.0539 -0.78639,-4.6558 -1.59444,-5.83041 -0.75055,-1.09101 -2.27665,0.74633 -3.1724,0.22506 -1.31896,-0.76757 -3.452305,-2.76231 -4.724565,-2.67917 -0.68938,2.33734 -2.91074,0.11847 -4.164138,1.28533 -0.297766,0.27718 -0.354377,1.02188 -0.888184,0.86717 -0.362747,-0.10523 -0.642813,-1.37858 -1.111005,-1.5988 -0.842844,-0.39648 -3.03077,-0.3208 -3.203457,0.627 -2.323039,1.86877 -4.996336,0.78918 -6.725648,-2.77464 -0.25358,-0.5226 0.233901,-0.98633 0.294391,-1.3992 0.07087,-0.48379 -0.521064,-0.99492 -0.489834,-1.4642 0.03365,-0.50605 0.583086,-0.48605 0.644168,-0.90909 0.11894,-0.82399 -1.187429,-1.99431 -1.122422,-2.97126 0.07846,-1.17889 0.101649,-2.51198 0.175124,-3.61603 0.06325,-0.9503 1.697684,2.901 2.63069,2.68321 0.05054,-0.0123 0.471784,-0.0345 0.481315,-0.15503 0.185901,-2.33543 -2.542522,-4.17832 -0.879648,-6.00998 0.978803,-1.07818 1.51163,3.0674 2.20603,3.12576 0.544081,0.0457 2.03243,1.00449 2.44341,0.48067 0.531828,-0.67782 1.159236,-0.48196 1.726048,-1.03117 0.325917,-0.31584 0.05575,-1.58051 0.410544,-1.89803 0.356367,-0.31892 1.052519,-0.0313 1.470684,0.0767 1.813961,0.46969 0.03627,3.3474 -0.191827,4.02113 -0.106719,0.0468 -0.325379,0.32189 -0.32721,0.55092 -4.43e-4,0.0423 0.130779,0.004 0.130941,0.004 0.270315,0.0396 0.608553,0.0812 0.870487,0.0201 0.188037,-0.0439 0.405324,0.0123 0.600064,0.007 0.153515,-0.003 0.06257,-0.64176 0.155833,-0.74268 0.07311,-0.0792 0.801628,-0.31813 0.904343,-0.18768 0.06167,0.0781 0.195133,0.60162 0.221817,0.71006 0.358588,1.45827 0.09463,0.70713 0.127335,1.78491 z"
       id="path5586"
       sodipodi:nodetypes="cscsscsscccssssscscssssssssscssscssscssssssscsssssscccssssscc"
       inkscape:label="Creta" />
    <path
       style="fill:#6b6b6b;fill-opacity:1;stroke-width:0.233574"
       d="m 147.66275,63.963057 c -0.0513,0.704228 -1.62877,1.519781 -1.45123,2.101193 0.75382,2.468792 3.43816,4.622812 5.80007,2.940448 1.23315,-0.878361 -0.57061,-4.066443 2.48127,-3.412314 1.91852,0.411227 -3.77031,5.4206 0.50847,4.134367 1.16131,-0.349099 7.41881,0.746155 7.43279,-1.048471 0.005,-0.666948 -3.18217,-0.88404 -3.02178,-1.93577 0.39758,-2.60646 2.12433,-0.130753 2.65627,0.751997 0.27388,0.454446 1.04856,-1.019593 0.53473,-1.838664 -1.3963,-2.225694 -4.50442,-2.867717 -4.12732,-5.411119 0.0729,-0.491321 -0.90369,-0.623511 -1.31657,-0.642867 -1.01527,-0.04763 -0.83717,-0.952952 -1.56727,-1.346371 -0.0878,-0.04725 -4.0772,1.057686 -4.1972,1.218189 -0.30254,0.404743 0.653,1.597227 0.14219,2.184756 -0.9524,1.095446 -2.77259,1.374116 -3.87442,2.304626 z"
       id="path5605"
       sodipodi:nodetypes="cssssssscsscssc"
       inkscape:label="northAegean" />
    <path
       style="display:inline;opacity:1;fill:#6b6b6b;fill-opacity:1;stroke-width:0.233562"
       d="m 132.44151,125.70722 c 2.66275,2.79424 -2.0105,1.9581 -2.0105,3.67397 0,0.38125 1.40058,0.6081 1.59329,0.91025 0.80033,1.25478 -2.23592,3.19206 -1.05833,4.48003 3.9483,4.31826 6.92963,-2.11874 8.41772,-2.61285 0.68432,-0.22721 4.18234,-0.76337 4.30758,-1.14453 0.16955,-0.51572 -0.70463,-1.29336 -0.37875,-1.82975 1.11654,-1.83784 6.80019,-6.57513 3.08734,-8.55033 -1.33797,-0.71179 -11.78836,4.7103 -13.95835,5.07321 z"
       id="path5670"
       inkscape:label="southAegean" />
    <path
       style="fill:#6b6b6b;fill-opacity:1;stroke:none;stroke-width:0.490626;stroke-opacity:1"
       d="m 149.88748,132.0149 c 0.27703,-1.10966 0.90577,-1.82621 2.02489,-2.52351 0.45719,-0.28493 1.22529,-0.5632 1.70158,-0.66166 0.54952,-0.11352 0.84133,-1.72286 1.55836,-1.78827 0.91078,-0.0831 0.46006,1.66265 -0.10237,2.93047 -0.33158,0.74765 -0.77226,1.26349 -0.80595,1.31692 -0.61585,0.97658 0.82163,3.15202 -0.51283,3.85168 -1.46456,0.76791 -3.67931,-1.73803 -3.86379,-3.12563 z"
       id="path9368"
       sodipodi:nodetypes="cssssssc" />
    <path
       style="fill:#6b6b6b;fill-opacity:1;stroke-width:0.177345"
       d="m 68.922754,69.611778 c 0.122769,0.261155 0.89016,0.238413 1.339162,0.277461 0.653953,0.05692 2.624997,0.05227 2.764436,0.444756 0.116584,0.328215 1.659708,0.36884 2.276269,0.962066 0.398039,0.382988 0.0174,1.020769 0.153767,1.549905 0.121843,0.472874 0.462725,1.261827 0.308193,1.389683 -0.458293,0.379144 -0.241515,0.817569 -0.515298,1.221397 -0.36055,0.531771 -0.795267,0.800195 -0.651459,2.060639 0.138198,1.21134 1.325179,1.27024 2.116731,2.294055 0.484613,0.626839 1.392516,1.403889 1.442702,2.112215 0.03953,0.558155 0.01928,1.533661 -0.235058,2.505751 -0.494779,1.89107 -5.123938,-0.0996 -6.670998,0.43966 -1.238543,0.43167 1.510451,1.64272 -1.478529,2.08077 -0.581394,-0.0425 -0.401702,0.0395 -0.826743,-0.0701 -1.725011,-0.44441 -0.942316,-0.19706 -1.550449,0.17161 -1.104446,0.66959 -1.660911,-0.8534 -1.685058,-0.84152 -0.969917,0.47634 1.26375,1.98549 -1.36827,1.37169 -0.606694,-0.14145 -1.751458,-0.69548 -2.296254,-0.85254 -0.152388,-0.044 0.103528,-0.34103 -0.399619,-1.39798 -1.493482,-0.70786 -2.907084,-2.332098 -4.356873,-2.351358 -0.9095,-0.012 -1.734779,-0.304481 -2.152876,-1.018316 -0.219344,-0.374453 -0.320079,-0.893974 -0.622786,-1.1699 -0.529101,-0.482328 -1.711448,-1.166517 -1.283586,-1.752123 0.504567,-0.690607 0.250252,-0.894993 0.279012,-1.201708 0.05501,-0.586682 -1.434402,-0.663127 -2.158535,-0.908073 -1.012593,-0.342514 -2.489845,-1.788027 -1.549056,-2.50086 h 2e-6 c 0.275681,-0.111821 0.753982,-0.313918 1.128814,-0.240131 4.421381,0.870235 2.557411,-1.774333 6.20258,-1.801846 1.006102,-0.0075 -1.035383,-1.242619 -1.580237,-1.851027 -0.68427,-0.764082 0.713639,-1.95844 1.051544,-2.474975 0.472866,-0.72281 3.8594,-0.408091 4.823217,-0.788238 0.8049,-0.317461 -0.192869,-1.458624 0.03793,-1.904071 0.235057,-0.453663 1.34119,-1.348755 1.887019,-1.807777 0.483386,-0.406505 1.10507,-0.0946 1.617794,0.271739 1.155327,0.825399 2.012811,0.700112 2.169974,1.334298"
       id="path1982"
       sodipodi:nodetypes="cssssssssssscsscsccssssssccssssssssc"
       inkscape:label="Epirus" />
    <path
       style="fill:#6b6b6b;fill-opacity:1;stroke-width:0.200331"
       d="m 77.728662,44.832665 c -0.183342,-0.02344 -0.973652,1.969203 -0.624948,2.799301 0.212728,0.506386 1.26591,0.693901 1.564824,1.176964 0.0075,0.01216 -0.556892,0.929017 -0.587484,1.106104 -0.610015,3.5309 -3.048028,0.492532 -5.85525,2.807511 -0.550572,0.454023 0.387494,3.212438 1.636232,3.517838 0.345229,0.0996 1.624827,-0.686314 1.919556,-0.485904 0.21883,0.148801 0.878172,8.852408 2.30885,9.852066 0.456678,0.3191 3.242249,1.110689 3.842812,0.969193 0.774615,-0.18251 1.405493,0.747032 2.396012,0.586326 0.340298,-0.05518 0.254974,0.286554 0.589763,0.215574 0.729642,-0.154756 1.253132,0.797364 1.958803,0.634867 0.702921,-0.161851 3.864476,0.62668 6.058936,0.0065 0.716291,-0.202518 2.190198,-1.090182 2.435137,-1.418354 0.185947,-0.249126 0.141762,-1.806763 0.595083,-1.918107 0.406824,-0.09978 0.980834,-0.442757 1.15917,-0.731741 0.182253,-0.295323 2.157808,-0.297406 2.614625,-0.386075 1.709377,-0.277213 0.851887,-1.785856 1.425317,-2.440127 0.97054,-1.10732 1.43144,-2.984889 0.30762,-3.11055 -2.080499,-0.232626 -3.236718,-1.605156 -3.502198,-3.538763 -0.06482,-0.471944 -2.081374,-0.729829 -1.922126,-2.136798 0.139956,-1.236526 -0.772557,-2.179839 -0.751408,-3.007596 0.0082,-0.317593 -0.296228,-1.135434 -0.08043,-1.465304 0.30056,-0.459384 0.08825,-1.309845 -0.308563,-1.975862 -0.215774,-0.362166 -2.040054,-1.417437 -2.775283,-0.866706 -0.379207,0.284049 -0.625139,1.332107 -0.990856,1.415158 -0.887113,0.20146 -0.531142,-0.677964 -0.998342,-0.916024 -0.405148,-0.206434 -0.875691,-0.430842 -1.635705,-0.528031 -0.641394,-0.08203 -1.251205,0.378003 -1.77368,0.504087 -1.363284,0.328993 -3.201165,-1.115153 -4.464903,-0.714265 -1.841868,0.584284 -2.521348,0.307299 -4.541582,0.04897 z"
       id="path1892"
       sodipodi:nodetypes="sscsscsssssssssscsssssssssssssss"
       inkscape:label="westMacedonia" />
    <path
       style="fill:#6b6b6b;fill-opacity:1;stroke-width:0.136332"
       d="m 134.74471,92.740748 c 0.50823,-0.719288 0.57784,-1.638583 0.0374,-2.3395 -0.41863,-0.542937 -0.21648,-1.402733 -0.72905,-1.849098 -0.73068,-0.636308 1.06497,-1.324657 1.4063,-1.783358 1.15914,-1.557673 -1.52474,-3.742134 1.9614,-5.895843 0.70401,-0.434928 0.75559,1.116699 0.66334,1.734446 -0.15251,1.021467 -2.14124,-0.424406 -1.62716,1.438617 0.37445,1.35704 2.39797,3.125961 3.41223,3.875499 1.30852,0.966983 3.08757,-0.626405 4.32188,0.18765 0.77817,0.513234 5.14296,5.210539 5.45115,5.02077 0.40435,-0.24904 1.12026,-2.925099 0.92223,-3.569469 -0.52012,-1.692489 -2.91281,-2.510836 -2.4962,-2.749307 1.32031,-0.755698 4.45034,3.687823 6.40325,2.574671 1.32254,-0.753867 -3.97126,-6.279602 -4.27083,-6.278696 -0.28883,7.85e-4 -0.57175,0.672149 -1.01786,0.472293 -0.15752,-0.0706 1.19893,-4.565628 -1.12057,-4.565628 -1.60887,0 2.35975,-3.848772 2.71477,-5.421713 0.28937,-1.28212 -1.35551,-3.775833 -2.16819,-4.175387 -0.92942,-0.456943 -2.74947,-3.031061 -3.52728,-3.995167 -0.29392,-0.364299 -1.42594,0.761881 -1.78382,0.761881 -0.27466,0 -0.97257,-1.334118 -1.13057,-1.217081 -0.62435,0.46242 -0.99859,2.751605 -1.37266,2.926318 -1.99905,0.933661 -2.04125,-1.797116 -3.79361,-1.362197 -1.44103,0.357649 -2.27182,4.482957 -2.17876,4.568503 0.92233,0.84794 -2.18706,-1.087582 -3.33799,-1.087582 -3.40875,0 -5.78133,3.075272 -7.1111,4.263964 -0.22661,0.258875 0.78164,8.568358 2.91435,9.955036 0.49454,0.321541 0.87799,0.345014 1.44013,0.457426 0.0568,0.01134 0.38169,0.02654 0.74692,0.412661 0.25109,0.265441 0.37895,0.696327 0.30558,1.090306 -0.21651,1.162652 -0.29516,2.066505 -0.19264,2.445326 0.33519,1.238486 1.54538,-0.444244 1.92714,-0.116011 0.83634,0.719053 -1.27138,1.443723 -0.61299,1.985265 1.11538,0.917437 2.79654,1.146028 3.74862,2.215798 z"
       id="path1825"
       inkscape:label="centralMacedonia"
       sodipodi:nodetypes="csssssssssssscssssssssssscssssssscc" />
    <path
       style="fill:#6b6b6b;fill-opacity:1;stroke-width:0.163167"
       d="m 137.52505,45.384311 c 0.55277,-1.718206 3.38513,-1.468634 4.57761,-0.567025 0.98917,0.747835 3.46901,8.323156 3.35345,8.599023 -0.52548,1.254443 -2.15276,1.936723 -2.76948,3.399654 -0.60422,1.433219 1.0259,3.64823 0.64895,5.0853 -0.30502,1.162664 -2.50198,0.830634 -2.9145,1.744246 -0.29332,0.649606 0.3428,1.910419 -0.28342,2.424505 -0.614,0.5041 -3.32002,1.869928 -4.12319,1.651063 -0.70124,-0.191085 -0.0354,-2.281911 -0.71321,-2.579407 -1.35565,-0.594957 -4.53645,1.082578 -5.61794,0 -0.41837,-0.418798 -1.05963,-1.480399 -1.57096,-1.641826 -0.67655,-0.21357 -1.54341,1.359673 -2.24596,0.824624 -0.50764,-0.386619 0.0833,-1.642067 -0.60583,-1.938719 -0.60614,-0.26094 -1.40926,2.566157 -2.28675,2.526325 -1.26428,-0.05738 -3.7745,-2.030636 -4.99814,-1.031634 -2.34928,1.91802 -4.4585,4.801516 -9.31098,2.37675 -0.8458,-0.422663 3.71188,-3.08822 3.6146,-6.196772 -0.0475,-0.77257 -2.53646,-1.927418 -3.1405,-2.183268 -0.20194,-0.08553 -1.13362,-0.485553 -1.5275,-1.57503 -0.29491,-0.815649 -1.06231,-1.618847 -1.14201,-2.543002 -0.12313,-1.426798 -0.41287,-2.658346 0.36119,-3.072353 2.27592,-2.811873 3.66693,-0.536098 4.51702,-0.970298 1.08985,-0.55666 1.17966,-2.15466 1.96835,-2.601023 3.33706,-1.888598 10.46409,3.958717 13.67073,6.008967 1.16188,0.74286 5.27678,-0.935755 6.13995,-1.670011 0.96928,-0.824541 2.01333,0.636326 3.34517,0.07219 1.04602,-0.443083 -0.18836,-4.654921 1.05335,-6.142284 z"
       id="path1760"
       inkscape:label="eastMacedonia"
       sodipodi:nodetypes="cssssssssssssssscssscsssssc" />
    <path
       style="fill:#6b6b6b;fill-opacity:1;stroke-width:0.144139"
       d="m 93.499906,96.920402 c -0.04481,0.580621 -0.672225,1.055432 -0.791236,1.646813 -0.09328,0.463569 -1.672684,1.837375 -1.845541,2.262035 -0.348185,0.85536 3.57702,1.75144 4.155551,2.29322 0.574814,0.5383 1.010812,0.7301 1.392006,1.68511 0.174447,0.43704 -0.219857,1.17972 -0.158797,1.64752 0.0113,0.0854 1.39479,0.23475 1.474655,0.25479 2.341056,0.58723 1.366579,-1.64486 3.477506,-1.73568 -0.0164,1.81073 1.55621,0.82171 2.37436,1.85362 0.0388,0.0489 -0.14976,0.33611 -0.0667,0.46434 0.74894,1.15671 0.76393,1.40105 2.22992,1.19127 0.4666,-0.0667 0.85124,-0.47937 1.29443,-0.64388 0.0599,-0.0222 0.70696,-0.16486 0.70665,-0.23332 -0.002,-0.52187 -1.02181,-0.84554 -0.97184,-1.23448 0.0346,-0.26951 0.60657,-0.65635 0.68122,-1.03217 0.0218,-0.1099 0.15037,-0.6991 0.23405,-0.77718 0.22439,-0.2094 0.63068,0.19849 0.81403,0.25859 1.35302,0.44359 2.37467,0.75082 2.59502,2.43887 0.59925,0.43426 1.49446,-0.28392 2.16166,-0.12324 0.42341,0.10166 0.66259,0.4163 1.16476,0.50409 0.40784,0.1431 0.84339,0.53906 1.21543,0.74433 0.18834,0.10393 0.53047,-0.13784 0.58908,0.0891 0.1055,0.40834 0.31843,-0.37158 0.59162,-0.43235 0.7364,-0.16382 1.78597,-0.19815 1.90573,-0.44708 0.31337,-0.65158 -0.71597,-0.48777 -0.89666,-0.71053 -0.10311,-0.12722 -0.1195,-0.32125 -0.23266,-0.4479 -0.21141,-0.23665 -0.68475,-0.13155 -0.85332,-0.34467 -0.13834,-0.1749 -0.0836,-0.66204 -0.27988,-0.79129 -0.75087,-0.49466 -0.83103,0.58513 -1.01999,-0.86249 -0.0381,-0.29193 -0.35377,-0.6739 -0.31317,-0.96006 0.0346,-0.24388 1.19924,-0.0588 1.26164,-0.2509 0.16128,-0.4968 0.086,-0.83663 0.65559,-1.15956 0.17961,-0.10178 0.12254,0.25325 0.24281,0.33995 0.53249,0.38372 0.9973,0.33171 1.61623,0.24316 1.33398,0.95442 3.6e-4,1.30665 2.09953,0.41812 0.32836,-0.9832 -0.20611,-0.67398 -0.55601,-1.16387 -1.1348,-1.58921 -1.41942,-2.119556 -3.45786,-2.966126 -0.40642,-0.168772 -1.08435,0.0913 -1.36593,-0.219869 -0.9811,-1.084196 -1.0629,-3.346537 -1.90965,-4.548811 -1.60226,-0.571931 -1.49261,-2.566234 -3.19649,-3.014258 -0.51846,-0.191698 -0.61468,-0.171587 -0.94938,-0.568781 -0.0696,-0.08259 -1.44376,-1.242039 -0.8987,-1.485251 0.31977,-0.142636 -1.27813,0.851937 -1.45383,0.863136 -0.14437,0.0091 -0.48094,-1.630435 -0.57558,-1.538164 -0.64726,0.631041 -1.29736,2.558516 -1.71215,2.126869 -0.29908,0.121305 -1.65548,0.505301 -1.69378,0.851265 -0.0429,0.387933 -1.11254,-0.662061 -1.25537,-0.256268 -0.21,0.596531 0.0506,2.002575 -0.1782,2.589309 -0.13301,0.341113 -1.61692,-0.24713 -1.57401,0.0816 -0.540801,0.35451 -0.095,2.12121 -0.774545,1.888609 -0.58168,-0.19912 -1.120014,-0.834179 -1.847323,-0.541859 -1.852226,0.744555 -0.792794,-0.121691 -1.93208,0.342511 -0.235346,0.09595 -2.404942,-0.444785 -3.442205,0.68427 z"
       id="path2057"
       inkscape:label="Thessaly"
       sodipodi:nodetypes="csssssccsccccsssscccssssssscsssssccsssccsssscssscssscc"
       inkscape:transform-center-x="-1.0159326"
       inkscape:transform-center-y="3.8220873" />
    <path
       style="fill:#6b6b6b;fill-opacity:1;stroke-width:0.244553"
       d="m 47.929305,99.560173 c -0.488454,0.861377 0.401694,1.778727 -0.144661,2.370337 -0.377018,0.40822 -1.129067,0.0652 -1.520801,0.54199 -2.056844,2.50324 2.217625,3.41442 2.175926,4.15152 -0.02729,0.48248 -0.608364,1.48565 -0.520745,1.90019 0.198324,0.93793 1.703858,1.00528 1.833273,2.14338 0.218023,1.91762 -1.498434,2.21204 -1.449564,3.96578 0.02592,0.93008 2.48968,1.09957 1.433682,2.26208 -0.494399,0.54426 -2.381903,4.0717 -1.654559,5.01291 2.50042,3.2355 5.504004,-0.1607 6.000338,0.66636 0.228099,0.38011 -0.111617,1.24599 0.115068,1.54227 0.97655,1.2767 1.002925,0.24791 1.2019,2.19764 1.120255,0.31525 2.920434,0.98563 4.236845,0.72948 0.57403,-0.11165 0.980071,1.02206 1.132251,1.30841 0.0467,0.0876 0.94257,-0.0865 1.086995,-0.0954 0.539018,-0.0332 1.051954,0.30434 1.554823,0.29173 0.494087,-0.0128 -0.255803,-1.21383 -0.921511,-2.56147 -0.257595,-0.52149 -0.0323,-0.0151 -0.21785,-0.48557 -0.570891,-1.45173 -0.355643,-0.99272 0.546794,-1.97403 0.142618,-0.15503 1.77256,-0.98131 1.764697,-1.23651 -0.04085,-1.32587 0.161201,-2.70393 0.701702,-3.63986 0.794271,-1.3754 0.880992,-2.19445 0.500547,-2.00681 -1.563924,0.77123 -2.650751,0.58786 -3.278149,-10e-4 -0.613932,-0.57724 -0.381903,-1.40007 -0.483307,-2.085 -0.141738,-0.95733 0.240287,-1.85439 0.852998,-3.09825 0.06344,-1.40643 -1.008239,-2.00483 -1.613801,-3.19349 -0.517373,-1.01553 -0.55802,-1.68673 0.09177,-2.4863 0.154604,-0.19032 0.07967,-0.63506 0.33696,-1.05359 0.274925,-0.44722 0.864666,-3.15669 0.09438,-3.36095 0.169708,-0.97487 -1.717829,0.71249 -2.15335,0.10766 -0.309836,-0.4302 -3.001587,-2.612297 -3.155213,-2.324037 -0.840563,1.576967 -0.261611,1.363817 -1.255396,1.837217 -0.196498,0.0936 -1.251359,-0.57901 -1.663764,-0.85314 -0.593907,-0.393067 -0.760481,0.33147 -1.110198,0.16676 -0.759058,-0.357577 -1.209772,-2.223917 -1.262541,-1.622887 -0.126306,1.438537 -0.220163,0.56522 -0.536866,0.90177 -0.265454,0.28207 -0.562277,-0.50208 -0.869174,-0.92996 -0.04373,-0.0611 -1.051523,-0.49582 -1.208708,-0.21865 z"
       id="path3456"
       sodipodi:nodetypes="ssssssssssccscsssssssssscssscssssssssss"
       inkscape:label="westGreece" />
    <path
       style="display:inline;fill:#6b6b6b;fill-opacity:1;stroke-width:0.131427"
       d="m 169.86581,86.558855 c 1.22936,-1.232802 2.18859,3.628724 3.23319,2.296196 0.38863,-0.495647 -4.30871,-4.703614 -4.24828,-4.585506 0.3123,0.610709 2.39,2.013225 3.30668,1.388202 0.61269,-0.417738 -0.4252,-0.699356 -0.41987,-1.021138 0.008,-0.469064 0.98517,-0.789394 1.08164,-1.113554 0.10105,-0.339546 0.72198,-1.33322 0.65686,-1.693372 -0.0496,-0.274401 -1.44731,-0.233893 -1.61038,-0.396511 -0.40889,-0.407747 0.56421,-0.34675 0.85581,-1.140759 0.40651,-0.376771 0.24495,-1.836022 0.38155,-2.247877 0.29112,-0.877695 -1.3338,-1.081916 -1.79924,-1.571629 -0.21401,-0.226124 -1.63027,0.708032 -2.02727,0.937564 -0.51111,0.29553 -0.58859,-0.759112 -1.2988,-0.331088 -0.27973,0.168641 2.11352,-1.02234 1.73169,-1.214944 -0.39247,-0.198063 -1.74652,0.633319 -1.89461,0.404092 -1.19972,-1.85725 0.5653,-0.493243 0.33102,-1.464466 -0.08,-0.331783 1.04734,0.09615 1.19149,-0.348512 0.0823,-0.253755 -1.39267,-2.024535 -1.41243,-2.283938 -0.0128,-0.168139 -2.61647,-0.738 -2.82186,-0.778965 -0.41196,-0.08218 -0.97748,-0.429359 -1.30663,-0.475631 -0.23383,-0.03289 -1.41897,-1.107189 -1.66989,-1.046196 -0.21191,0.844321 -1.64249,1.870998 -1.96399,2.524999 -0.6487,1.319599 -0.1149,2.185808 -0.52558,3.348853 -0.55606,1.57485 -0.70934,0.209025 0.86532,4.261813 0.18267,0.470232 0.58865,-0.387577 0.13055,0.78402 -0.15812,0.404369 0.7196,0.891956 0.37498,1.237535 -0.22007,0.220686 -0.69176,1.493476 -0.95709,1.558929 -1.04388,0.257484 -1.864,-0.195012 -2.66008,0.708524 -0.0798,0.08996 -0.0682,0.06416 -0.1029,0.09894 0.68635,0.741063 0.49852,1.74131 0.65057,2.705571 0.0213,0.136201 1.01832,0.293374 1.18247,0.328775 0.47737,0.102966 0.20622,1.203357 0.79749,1.257775 0.41026,0.03776 1.04254,-1.118682 1.49149,-0.909257 0.83816,0.390974 -1.06454,2.123667 -1.00235,2.333287 0.42784,1.442007 1.25812,-0.22939 2.06371,0.416407 -1.59184,0.71862 -0.11715,1.1604 -0.33285,1.74551 -0.1149,0.31166 -0.6095,0.10258 -0.78239,0.4122 -0.11337,0.20305 0.47893,0.82741 0.54798,1.0022 0.095,0.24007 -0.44856,0.4984 -0.36577,0.72566 0.29095,0.79909 0.62483,0.13297 1.12528,0.20515 0.50695,0.0732 -0.0695,0.8209 -0.0185,1.10288 0.10537,0.58263 0.66339,0.71378 0.73525,1.44538 0.19464,0.30736 0.45074,-0.19916 0.68175,-0.15171 0.19904,0.0409 0.12532,0.46699 0.21881,0.48463 0.61319,0.11593 -2.20184,0.85999 -1.42108,1.15265 1.19834,0.44921 2.29586,0.80366 3.59918,1.3171 0.0462,0.0184 0.61718,0.476206 0.9394,0.268456 0.45062,-0.290536 0.56813,-0.806486 1.04836,-0.955986 0.17663,-0.0549 1.09256,-0.86434 1.16512,-1.03003 0.18449,-0.4214 1.34081,-0.79884 1.52754,-1.23094 0.18558,-0.42949 1.54957,-1.15099 1.51215,-1.65405 -0.0164,-0.22063 -1.89374,-0.63494 -1.90494,-2.22668 -0.003,-0.39491 2.72038,-3.311867 0.38412,-3.269317 -0.10142,-0.016 0.78038,-0.60804 0.82585,-0.73894 0.73147,-2.107789 -0.73764,-0.204391 -1.32896,-1.949701 -0.11304,-0.333639 -1.18856,-0.562141 -1.27471,-0.964662 z"
       id="path3557"
       sodipodi:nodetypes="cscssssscssssscssssscssssssscssssccsssssscssssssssssccscc"
       inkscape:label="centralGreece" />
    <path
       style="fill:#6b6b6b;fill-opacity:1;stroke-width:0.176519"
       d="m 79.736081,105.22114 c 1.22477,0.33824 0.33562,1.36775 0.40713,1.68352 0.0641,0.28296 0.53049,0.56974 0.62923,0.62861 0.32319,0.19266 0.89783,0.25936 0.87975,0.30843 -0.22503,0.61075 0.0956,-0.17693 0.54495,0.52648 0.21687,0.33936 0.88904,0.23208 1.56689,0.38841 1.79554,0.41426 4.36398,0.70284 5.40694,1.37662 0.29851,0.19287 -0.52469,0.66809 -0.46451,0.89739 0.0538,0.20545 0.73258,0.13831 1.00534,0.28434 0.86518,0.46301 -0.0326,1.02488 0.0781,1.38338 0.0804,0.2598 1.53447,0.79956 1.48312,0.90121 -0.23936,0.47474 -0.94542,0.65864 -0.68285,1.26839 0.18202,0.42269 1.98177,0.59484 2.38907,0.85524 0.46715,0.29866 -0.25186,1.41185 0.81786,1.9921 0.30064,0.16312 1.15637,0.10325 1.44898,0.0801 0.26734,-0.0215 0.19373,-0.4984 0.38451,-0.36211 2.11335,1.50914 3.89435,0.27609 4.700759,-1.05627 0.68675,-1.42274 -0.31845,-1.86237 -1.649189,-2.1001 -0.97879,-0.17488 -2.21157,-0.11416 -2.68002,-0.89856 -0.81366,-1.36245 0.38127,-2.27307 -0.28018,-3.73631 -0.18392,-0.40692 1.20623,-1.25353 1.5047,-2.00645 0.16671,-0.42046 -0.78732,-0.68224 -1.25401,-0.92581 -0.42621,-0.22249 -0.018,-1.1063 -0.68814,-1.45425 0.69209,-1.03276 -2.81134,-2.23647 -4.30876,-2.6169 -1.16993,-0.29722 -2.11739,-0.7355 -2.93808,-1.2391 -0.43031,-0.26404 -2.52507,0.21073 -2.98332,-0.0279 -2.97506,-1.549502 -1.90881,-0.22013 -2.08667,-1.790852 -0.0189,-0.16692 -1.9966,-0.43131 -2.22538,-0.55168 -0.37731,-0.19847 0.22767,-0.84344 -0.43435,-1.066411 -2.92656,-0.98576 -9.26954,1.009541 -9.69948,0.957711 0.0441,0.1297 0.37067,0.77362 0.74359,0.99759 0.71431,0.429002 2.39235,0.0378 3.12424,0.456882 0.54777,0.31371 0.31538,2.43631 0.6604,2.05873 1.67879,-1.83715 2.04021,0.8337 2.3097,2.07581 0.0849,0.3914 1.3346,0.38477 1.616,0.70536 z"
       id="path3636"
       sodipodi:nodetypes="cssssscscscssssccssssscsssssscscsscc"
       inkscape:label="Evia" />
    <path
       style="display:inline;fill:#6b6b6b;fill-opacity:1;stroke-width:0.175227"
       d="m 71.702221,115.73926 c 0.84759,0.85939 -0.008,1.77437 0.69301,2.70014 0.11017,0.14541 4.01911,-0.17889 4.4895,-0.40403 0.96881,-0.46382 1.16433,-1.38597 2.83848,-0.76117 0.46063,0.17188 -0.30198,0.71698 0.15405,0.95483 0.51105,0.26652 1.33522,0.10659 1.78991,0.39238 0.56645,0.35607 1.69581,1.92252 2.03407,2.54155 0.1311,0.23997 0.91935,-0.0861 1.00416,0.10713 0.57181,1.30199 1.25763,2.96626 3.13,2.57384 1.044826,-0.21899 0.935656,-2.51665 1.088616,-3.63008 0.0321,-0.23325 -0.53955,-0.15332 -0.67862,-0.35225 -0.260516,-0.37251 0.32175,-1.0925 0.17871,-1.39232 -1.137326,-2.38388 0.932013,-4.09133 1.428903,-5.80691 0.74737,-2.58048 -7.255259,-4.40825 -9.370899,-4.40825 -2.37048,1.2379 0.72524,4.0639 -0.65499,6.05858 -0.10771,0.15568 -1.04266,-1.69235 -1.19993,-1.84051 -0.77174,-0.72706 -0.93708,0.52999 -1.99576,-0.0382 -0.92804,0.14595 -0.46185,0.87134 -0.99861,1.59594 -0.55327,0.7469 -0.64768,-0.11675 -1.00825,0.005 -0.21175,0.63918 -0.43907,1.04193 -1.45545,1.24895 -0.39932,0.0815 -0.83175,0.52033 -1.4669,0.45522 z"
       id="path3715"
       inkscape:label="Attica"
       sodipodi:nodetypes="csssssssssssscsscscscc" />
    <path
       style="display:inline;fill:#6b6b6b;fill-opacity:1;stroke-width:0.129264"
       d="m 66.63464,138.75866 c 0.503166,-9.7e-4 1.399439,0.085 0.879938,-0.47109 -0.19898,-0.21295 -1.244047,-0.0394 -1.301849,-0.17646 -0.226735,-0.53787 0.414323,-0.42155 0.872678,-0.58808 0.21822,-0.0792 0.416076,-0.22379 0.641391,-0.28939 0.296767,-0.0864 1.926898,0.2579 2.32539,-0.0598 0.19248,0.12767 0.536939,0.47293 0.540848,0.8399 -0.02153,0.0862 0.08214,0.28855 0.04152,0.56301 -0.02952,0.19938 0.05683,0.47871 0.01084,0.70763 -0.07969,0.39626 0.05027,0.79258 0.09149,0.93835 0.161765,0.57157 -1.592311,-0.46853 -1.588849,0.16644 2.42e-4,0.0446 -0.511436,-1.20888 -0.439873,-1.17075 0.459645,0.24498 1.442844,0.8808 1.9976,0.87924 0.147652,0.16158 0.520772,0.85547 0.04289,0.73651 -0.696986,-0.1735 -0.794391,0.20239 -0.677789,0.61145 0.09056,0.31778 0.431114,0.0575 0.529262,0.72384 0.172483,1.17731 0.227579,1.16202 1.439967,1.80893 1.522642,0.8125 -0.4104,2.63722 -1.588642,2.11371 -1.12356,-0.49923 -2.118346,-1.24904 -2.960828,-1.88074 -0.248428,-0.18628 -1.105024,0.23985 -1.446636,0.0771 -0.285188,-0.13593 -1.249303,-0.9886 -1.830014,-0.7296 -0.156163,0.0697 0.06924,1.18316 0.111523,1.41585 0.716183,0.49048 2.06863,4.21238 2.226915,4.32789 0.217374,0.15862 1.144229,0.0805 1.328004,0.27538 0.7003,0.74324 0.09662,1.91695 0.605663,2.63789 0.404077,0.57222 1.176839,0.7672 0.967718,1.53522 -0.09674,0.35526 -0.625877,0.30966 -0.824492,0.5882 -0.312159,0.43773 0.880148,1.5247 0.320971,1.89769 -1.231837,0.82176 -2.584121,-0.42646 -3.012564,-1.20209 -0.04057,-0.0735 -0.54509,0.0101 -0.649961,-0.0704 -0.288745,-0.22124 0.330413,-0.33941 0.424817,-0.4019 0.224427,-0.14869 -0.157626,-1.08803 -0.203356,-1.23749 -0.875314,0.42461 -2.558067,-0.36431 -3.339202,-0.0551 -0.671143,0.26565 -0.515334,2.08335 -1.06153,2.08489 -0.533731,9.8e-4 -1.450455,0.2131 -1.990694,9.8e-4 -0.227706,-0.0889 -1.117389,-2.41171 -1.456676,-2.5636 -0.470267,-0.21045 -0.928407,-0.56593 -1.457065,-0.69107 -0.07443,-0.0176 -1.026893,-0.10798 -0.964004,-0.23249 0.634526,-1.25539 0.373226,-1.25675 -1.682028,-1.43243 -0.285617,0.36403 -0.479862,0.81114 -0.796786,1.14717 -0.719854,0.7633 1.69667,1.74805 -0.278266,2.47017 -0.245957,0.0899 -2.86617,-1.40531 -3.088917,-1.6969 -0.41916,-0.54868 0.81484,-0.40779 0.407205,-0.98869 -0.833317,-1.18752 -2.033068,-1.26103 -2.041885,-2.8773 2.722115,-1.77469 1.587942,-4.94598 -1.795288,-6.20215 -0.511239,-0.18981 -1.106026,0.22832 -1.65325,-0.0311 -0.615075,-0.29165 -0.22941,-1.58151 -1.968268,-2.29516 -0.254442,-0.26446 -0.484969,-0.82634 -0.300921,-1.16658 0.04721,-0.0873 1.208712,-0.19322 1.413765,-0.29244 0.691123,-0.33436 1.175595,-0.83626 1.629442,-1.33027 0.539752,-0.58755 -0.837247,-1.71498 0.24501,-1.97534 1.060717,-0.25515 3.486721,1.42317 4.435453,0.58524 1.041514,-0.91989 4.008052,-3.34447 5.68333,-1.531 1.952369,-0.58902 1.123491,1.40317 2.059751,1.68717 0.524619,0.15917 1.340206,-0.18581 1.849474,0.0304 0.338521,0.1436 0.242563,0.53676 0.534661,0.66132 0.478845,0.20426 1.636249,-0.34956 2.181312,-0.24827 1.790841,0.33283 3.036213,2.09565 4.560824,2.37595 z"
       id="path4932"
       sodipodi:nodetypes="csscsscssscsssccssssscssssscscscscsscccsssscsscssssscsssscc"
       inkscape:label="peloponnese" />
  </g>
</svg>
