<?xml version="1.0" encoding="UTF-8" standalone="no"?>
<!-- Created with Inkscape (http://www.inkscape.org/) -->

<svg
   width="210mm"
   height="210mm"
   viewBox="0 0 210 210"
   version="1.1"
   id="svg5"
   xml:space="preserve"
   inkscape:version="1.2.2 (732a01da63, 2022-12-09, custom)"
   sodipodi:docname="planetaHistoria.svg"
   xmlns:inkscape="http://www.inkscape.org/namespaces/inkscape"
   xmlns:sodipodi="http://sodipodi.sourceforge.net/DTD/sodipodi-0.dtd"
   xmlns:xlink="http://www.w3.org/1999/xlink"
   xmlns="http://www.w3.org/2000/svg"
   xmlns:svg="http://www.w3.org/2000/svg"><sodipodi:namedview
     id="namedview7"
     pagecolor="#ffffff"
     bordercolor="#000000"
     borderopacity="0.25"
     inkscape:showpageshadow="2"
     inkscape:pageopacity="0.0"
     inkscape:pagecheckerboard="true"
     inkscape:deskcolor="#d1d1d1"
     inkscape:document-units="mm"
     showgrid="false"
     inkscape:zoom="0.47037037"
     inkscape:cx="299.76378"
     inkscape:cy="382.67716"
     inkscape:window-width="1366"
     inkscape:window-height="705"
     inkscape:window-x="0"
     inkscape:window-y="0"
     inkscape:window-maximized="1"
     inkscape:current-layer="layer2"
     showguides="false" /><defs
     id="defs2"><linearGradient
       inkscape:collect="always"
       id="linearGradient4408"><stop
         style="stop-color:#ffffff;stop-opacity:1;"
         offset="0"
         id="stop4404" /><stop
         style="stop-color:#ff00ff;stop-opacity:1;"
         offset="1"
         id="stop4406" /></linearGradient><linearGradient
       inkscape:collect="always"
       id="linearGradient4296"><stop
         style="stop-color:#ffffff;stop-opacity:1;"
         offset="0"
         id="stop4292" /><stop
         style="stop-color:#ff00ff;stop-opacity:1;"
         offset="1"
         id="stop4294" /></linearGradient><linearGradient
       inkscape:collect="always"
       id="linearGradient4056"><stop
         style="stop-color:#ffffff;stop-opacity:1;"
         offset="0"
         id="stop4052" /><stop
         style="stop-color:#ff00ff;stop-opacity:1;"
         offset="1"
         id="stop4054" /></linearGradient><inkscape:path-effect
       effect="powerstroke"
       id="path-effect3685"
       is_visible="true"
       lpeversion="1"
       offset_points="0,0.1673572"
       not_jump="false"
       sort_points="true"
       interpolator_type="CubicBezierJohan"
       interpolator_beta="0.2"
       start_linecap_type="zerowidth"
       linejoin_type="extrp_arc"
       miter_limit="4"
       scale_width="1"
       end_linecap_type="zerowidth" /><inkscape:path-effect
       effect="powerstroke"
       id="path-effect3677"
       is_visible="true"
       lpeversion="1"
       offset_points="0,0.1673572"
       not_jump="false"
       sort_points="true"
       interpolator_type="CubicBezierJohan"
       interpolator_beta="0.2"
       start_linecap_type="zerowidth"
       linejoin_type="extrp_arc"
       miter_limit="4"
       scale_width="1"
       end_linecap_type="zerowidth" /><linearGradient
       inkscape:collect="always"
       id="linearGradient3536"><stop
         style="stop-color:#ffffff;stop-opacity:1;"
         offset="0"
         id="stop3532" /><stop
         style="stop-color:#ff00ff;stop-opacity:1;"
         offset="1"
         id="stop3534" /></linearGradient><linearGradient
       inkscape:collect="always"
       id="linearGradient3380"><stop
         style="stop-color:#ffffff;stop-opacity:1;"
         offset="0"
         id="stop3376" /><stop
         style="stop-color:#ff00ff;stop-opacity:1;"
         offset="1"
         id="stop3378" /></linearGradient><linearGradient
       inkscape:collect="always"
       id="linearGradient3358"><stop
         style="stop-color:#ffffff;stop-opacity:1;"
         offset="0"
         id="stop3354" /><stop
         style="stop-color:#ff00ff;stop-opacity:0.35425001"
         offset="1"
         id="stop3356" /></linearGradient><linearGradient
       inkscape:collect="always"
       id="linearGradient2884"><stop
         style="stop-color:#ff00ff;stop-opacity:1;"
         offset="0"
         id="stop2880" /><stop
         style="stop-color:#000000;stop-opacity:0;"
         offset="1"
         id="stop2882" /></linearGradient><linearGradient
       inkscape:collect="always"
       id="linearGradient2027"><stop
         style="stop-color:#1c184c;stop-opacity:1;"
         offset="0.95257324"
         id="stop2023" /><stop
         style="stop-color:#000000;stop-opacity:0;"
         offset="1"
         id="stop2025" /></linearGradient><clipPath
       clipPathUnits="userSpaceOnUse"
       id="clipPath1864"><rect
         style="opacity:0.790417;fill:#3840da;fill-opacity:1;stroke:#dcd8fc;stroke-width:0.264583"
         id="rect1866"
         width="290.73709"
         height="297.36664"
         x="-308.18765"
         y="-25.084362" /></clipPath><radialGradient
       inkscape:collect="always"
       xlink:href="#linearGradient2027"
       id="radialGradient2029"
       cx="100.39962"
       cy="126.07906"
       fx="100.39962"
       fy="126.07906"
       r="68.431656"
       gradientTransform="matrix(1.0798693,0,0,1.0697339,-2.6580242,-27.270879)"
       gradientUnits="userSpaceOnUse" /><radialGradient
       inkscape:collect="always"
       xlink:href="#linearGradient2884"
       id="radialGradient2029-3"
       cx="100.39962"
       cy="126.07906"
       fx="100.39962"
       fy="126.07906"
       r="68.431656"
       gradientTransform="matrix(1,0,0,0.99061417,3.3544527,-17.615515)"
       gradientUnits="userSpaceOnUse" /><filter
       inkscape:collect="always"
       style="color-interpolation-filters:sRGB"
       id="filter2931"
       x="-0.099818554"
       y="-0.10076612"
       width="1.1996371"
       height="1.2015322"><feGaussianBlur
         inkscape:collect="always"
         stdDeviation="5.68153"
         id="feGaussianBlur2933" /></filter><filter
       inkscape:collect="always"
       style="color-interpolation-filters:sRGB"
       id="filter3096"
       x="-0.23544709"
       y="-0.21209935"
       width="1.4708942"
       height="1.4241987"><feGaussianBlur
         inkscape:collect="always"
         stdDeviation="10.208074"
         id="feGaussianBlur3098" /></filter><radialGradient
       inkscape:collect="always"
       xlink:href="#linearGradient3358"
       id="radialGradient3360"
       cx="194.53798"
       cy="68.511078"
       fx="194.53798"
       fy="68.511078"
       r="27.430183"
       gradientTransform="matrix(-0.62301708,-0.88202461,1.5565876,-1.0994938,210.02417,301.9087)"
       gradientUnits="userSpaceOnUse" /><radialGradient
       inkscape:collect="always"
       xlink:href="#linearGradient3380"
       id="radialGradient3382"
       cx="68.363533"
       cy="47.338558"
       fx="68.363533"
       fy="47.338558"
       r="12.769295"
       gradientTransform="matrix(1.9481617,2.6093819,-1.8774764,1.401722,26.859451,-223.47888)"
       gradientUnits="userSpaceOnUse" /><radialGradient
       inkscape:collect="always"
       xlink:href="#linearGradient3536"
       id="radialGradient3538"
       cx="149.16457"
       cy="57.336884"
       fx="149.16457"
       fy="57.336884"
       r="7.6858406"
       gradientTransform="matrix(1.1941283,-1.0407485,0.68595345,0.7870455,-64.462295,140.54512)"
       gradientUnits="userSpaceOnUse" /><inkscape:path-effect
       effect="fill_between_many"
       method="bsplinespiro"
       linkedpaths="#path3675,0,1"
       id="path-effect3679"
       is_visible="true"
       lpeversion="0"
       join="true"
       close="true"
       autoreverse="true" /><inkscape:path-effect
       effect="fill_between_many"
       method="bsplinespiro"
       linkedpaths="#path3683,0,1"
       id="path-effect3687"
       is_visible="true"
       lpeversion="0"
       join="true"
       close="true"
       autoreverse="true" /><radialGradient
       inkscape:collect="always"
       xlink:href="#linearGradient4056"
       id="radialGradient4058"
       cx="181.58505"
       cy="172.718"
       fx="181.58505"
       fy="172.718"
       r="23.924782"
       gradientTransform="matrix(0.45147001,-0.73737691,1.8672203,1.1106506,-214.22194,100.50333)"
       gradientUnits="userSpaceOnUse" /><radialGradient
       inkscape:collect="always"
       xlink:href="#linearGradient4296"
       id="radialGradient4298"
       cx="56.314774"
       cy="203.39919"
       fx="56.314774"
       fy="203.39919"
       r="18.596828"
       gradientTransform="matrix(1.9619278,-3.2655081,0.98943749,0.59445727,-250.53691,249.56505)"
       gradientUnits="userSpaceOnUse" /><radialGradient
       inkscape:collect="always"
       xlink:href="#linearGradient4408"
       id="radialGradient4410"
       cx="5.0950127"
       cy="123.11457"
       fx="5.0950127"
       fy="123.11457"
       r="18.832506"
       gradientTransform="matrix(2.793848,0.33333529,-0.07714756,0.64661184,0.98674773,15.906236)"
       gradientUnits="userSpaceOnUse" /></defs><g
     inkscape:label="Camada 1"
     inkscape:groupmode="layer"
     id="layer1"
     style="opacity:0.676959" /><g
     inkscape:groupmode="layer"
     id="layer2"
     inkscape:label="globo"><ellipse
       style="opacity:1;fill:url(#radialGradient2029);fill-opacity:1;stroke:#4f3bf0;stroke-width:0.279395;stroke-opacity:1"
       id="path1967"
       cx="105.76046"
       cy="107.60015"
       rx="73.757561"
       ry="73.063965" /><ellipse
       style="opacity:0.728383;mix-blend-mode:normal;fill:url(#radialGradient2029-3);fill-opacity:1;stroke:none;stroke-width:0.25873;stroke-opacity:1;filter:url(#filter2931)"
       id="path1967-5"
       cx="103.75408"
       cy="107.2802"
       rx="68.302292"
       ry="67.660004"
       transform="matrix(1.0798694,0,0,1.0798694,-6.4268014,-7.2419255)" /></g><g
     inkscape:groupmode="layer"
     id="layer4"
     inkscape:label="terraB"><path
       style="opacity:1;fill:#63b526;fill-opacity:1;stroke-width:0.167888"
       d="m 97.731762,158.01046 c 0.832504,0.14457 0.628329,1.00221 1.056048,1.26959 0.25213,0.15759 0.75587,-0.37623 0.94207,-0.49756 0.51071,-0.33261 1.5023,0.15531 1.92695,-0.41386 0.22304,-0.29898 0.34335,-0.81434 0.533,-1.16972 0.0989,-0.18541 0.18132,-0.40547 0.31778,-0.5199 0.39556,-0.0999 1.36264,-0.0382 1.65382,-0.41807 0.0781,-0.10193 0.005,-0.37139 0.07,-0.4662 0.12347,-0.18145 1.82076,0.16682 2.15784,-0.006 0.22833,-0.23554 0.32307,-0.29217 0.60136,-0.53417 0.30968,0.66458 0.56937,1.04463 0.87596,1.7926 1.95791,-1.04306 2.20081,-1.11269 4.25477,0.0916 0.24179,0.14176 0.62865,-0.65048 0.74416,-0.85011 0.35244,-0.60915 0.89933,0.44644 1.12525,0.34599 0.21368,-0.0951 0.39542,-0.57755 0.60894,-0.71499 0.28792,-0.18537 1.56218,-0.69391 1.81964,-0.11484 0.24706,0.55577 0.62444,3.56263 0.62355,4.19118 0.76231,-0.21246 0.53331,-1.19381 1.45025,-1.38019 0.26061,-0.053 -0.1608,-0.90284 -0.15249,-1.33353 0.006,-0.34548 0.74285,-0.72548 0.9942,-0.67185 0.46051,0.0982 1.3538,1.34477 1.75817,0.63113 0.50356,-0.8887 -0.47698,-2.76448 0.60597,-3.03823 1.27694,-0.32278 0.94501,2.44429 1.39357,3.41702 0.59027,1.28017 0.99978,1.48238 0.70913,3.00137 -0.10766,0.56267 0.15311,1.38055 0.1298,2.00335 -0.063,1.68153 -3.01506,1.44207 -3.57794,0.8409 -0.21153,-0.22592 -1.59676,1.22268 -1.91906,1.30415 -0.50884,0.12863 -1.69145,-0.29137 -2.0485,0.21171 -0.69625,0.981 -1.93734,1.72948 -2.99569,1.06631 -0.73327,1.58822 -5.62233,4.47672 -6.79351,4.26985 -0.22371,-0.0395 -0.5321,-3.41119 -1.07886,-4.2718 -0.50785,-0.79935 -1.54047,0.54682 -2.14657,0.1649 -0.89246,-0.56238 -2.33597,-2.02388 -3.19683,-1.96296 -0.46646,1.71251 -1.969522,0.0868 -2.817621,0.94173 -0.20148,0.20308 -0.239785,0.7487 -0.60098,0.63535 -0.245449,-0.0771 -0.434953,-1.01005 -0.75175,-1.1714 -0.570302,-0.29049 -2.050739,-0.23504 -2.167586,0.45939 -1.57186,1.3692 -3.380719,0.57821 -4.55084,-2.03291 -0.171582,-0.3829 0.158267,-0.72266 0.199197,-1.02516 0.04795,-0.35446 -0.352573,-0.72895 -0.331441,-1.07278 0.02277,-0.37077 0.394539,-0.35612 0.435869,-0.66607 0.08048,-0.60372 -0.803461,-1.46118 -0.759475,-2.17697 0.05309,-0.86374 0.06878,-1.84046 0.118496,-2.64937 0.0428,-0.69626 1.14872,2.12549 1.780029,1.96592 0.0342,-0.009 0.319228,-0.0253 0.325677,-0.11359 0.125788,-1.71111 -1.720371,-3.06135 -0.595205,-4.40336 0.662297,-0.78995 1.022829,2.24741 1.492687,2.29017 0.368147,0.0335 1.375223,0.73596 1.653308,0.35217 0.359856,-0.49662 0.784385,-0.35312 1.167913,-0.75551 0.220528,-0.23141 0.03772,-1.158 0.27779,-1.39064 0.241132,-0.23366 0.712176,-0.0229 0.995123,0.0562 1.227398,0.34413 0.02454,2.45255 -0.129798,2.94618 -0.07221,0.0343 -0.220164,0.23584 -0.221403,0.40364 -3e-4,0.031 0.08849,0.003 0.0886,0.003 0.182906,0.029 0.411771,0.0595 0.589006,0.0147 0.127233,-0.0322 0.274258,0.009 0.406027,0.005 0.103874,-0.002 0.04234,-0.4702 0.105443,-0.54414 0.04947,-0.058 0.542413,-0.23309 0.611914,-0.13751 0.04173,0.0572 0.132035,0.44079 0.15009,0.52024 0.242635,1.06844 0.06403,0.5181 0.08616,1.30776 z"
       id="path5586"
       sodipodi:nodetypes="cscsscsscccssssscscssssssssscssscssscssssssscsssssscccssssscc"
       inkscape:label="Creta" /><path
       style="fill:#63b526;fill-opacity:1;stroke-width:0.277903"
       d="m 124.4047,80.913578 c -0.0643,0.795355 -2.04149,1.716441 -1.81896,2.373088 0.94484,2.788254 4.30938,5.221005 7.26979,3.320943 1.54562,-0.992021 -0.7152,-4.592642 3.11001,-3.853869 2.40467,0.46444 -4.72569,6.122027 0.63731,4.669355 1.45558,-0.394272 9.29871,0.842708 9.31623,-1.184143 0.006,-0.753251 -3.98852,-0.998435 -3.78748,-2.186259 0.49832,-2.943736 2.66262,-0.147672 3.32936,0.849306 0.34327,0.513251 1.31426,-1.151529 0.67022,-2.076588 -1.75011,-2.513699 -5.64582,-3.2388 -5.17317,-6.111319 0.0914,-0.554898 -1.13267,-0.704193 -1.65018,-0.726054 -1.27253,-0.05379 -1.0493,-1.076264 -1.96441,-1.520592 -0.11002,-0.05336 -5.11034,1.194551 -5.26075,1.375823 -0.37921,0.457117 0.81847,1.803909 0.17822,2.467464 -1.19373,1.237197 -3.47515,1.551927 -4.85619,2.602845 z"
       id="path5605"
       sodipodi:nodetypes="cssssssscsscssc"
       inkscape:label="northAegean" /><path
       style="display:inline;opacity:1;fill:#63b526;fill-opacity:1;stroke-width:0.294438"
       d="m 133.9172,124.9855 c 3.47054,3.40706 -2.62043,2.38755 -2.62043,4.47973 0,0.46487 1.82547,0.74147 2.07665,1.10989 1.04312,1.52996 -2.91424,3.89212 -1.3794,5.46256 5.1461,5.26531 9.03189,-2.58342 10.97142,-3.18589 0.89194,-0.27704 5.45115,-0.93079 5.61439,-1.39554 0.22099,-0.62882 -0.9184,-1.57701 -0.49366,-2.23104 1.45528,-2.24091 8.86319,-8.01715 4.02397,-10.42554 -1.74388,-0.8679 -15.36464,5.74333 -18.19294,6.18583 z"
       id="path5670"
       inkscape:label="southAegean" /><path
       style="fill:#63b526;fill-opacity:1;stroke:none;stroke-width:0.490626;stroke-opacity:1"
       d="m 146.42124,139.78465 c 0.27703,-1.10966 0.90577,-1.82621 2.02489,-2.52351 0.45719,-0.28493 1.22529,-0.5632 1.70158,-0.66166 0.54952,-0.11352 0.84133,-1.72286 1.55836,-1.78827 0.91078,-0.0831 0.46006,1.66265 -0.10237,2.93047 -0.33158,0.74765 -0.77226,1.26349 -0.80595,1.31692 -0.61585,0.97658 0.82163,3.15202 -0.51283,3.85168 -1.46456,0.76791 -3.67931,-1.73803 -3.86379,-3.12563 z"
       id="path9368"
       sodipodi:nodetypes="cssssssc" /><path
       style="fill:#63b526;fill-opacity:1;stroke-width:0.177345"
       d="m 60.785996,86.66035 c 0.122769,0.261155 0.89016,0.238413 1.339162,0.277461 0.653953,0.05692 2.624997,0.05227 2.764436,0.444756 0.116584,0.328215 1.659708,0.36884 2.276269,0.962066 0.398039,0.382988 0.0174,1.020769 0.153767,1.549905 0.121843,0.472874 0.462725,1.261827 0.308193,1.389683 -0.458293,0.379144 -0.241515,0.817569 -0.515298,1.221397 -0.36055,0.531771 -0.795267,0.800195 -0.651459,2.060639 0.138198,1.21134 1.325179,1.27024 2.116731,2.294055 0.484613,0.626839 1.392516,1.403889 1.442702,2.112215 0.03953,0.558155 0.01928,1.533663 -0.235058,2.505753 -0.494779,1.89107 -5.123938,-0.0996 -6.670998,0.43966 -1.238543,0.43167 1.510451,1.64272 -1.478529,2.08077 -0.581394,-0.0425 -0.401702,0.0395 -0.826743,-0.0701 -1.725011,-0.44441 -0.942316,-0.19706 -1.550449,0.17161 -1.104446,0.66959 -1.660911,-0.8534 -1.685058,-0.84152 -0.969917,0.47634 1.26375,1.98549 -1.36827,1.37169 -0.606694,-0.14145 -1.751458,-0.69548 -2.296254,-0.85254 -0.152388,-0.044 0.103528,-0.34103 -0.399619,-1.39798 -1.493482,-0.70786 -2.907084,-2.3321 -4.356873,-2.35136 -0.9095,-0.012 -1.734779,-0.304481 -2.152876,-1.018316 -0.219344,-0.374453 -0.320079,-0.893974 -0.622786,-1.1699 -0.529101,-0.482328 -1.711448,-1.166517 -1.283586,-1.752123 0.504567,-0.690607 0.250252,-0.894993 0.279012,-1.201708 0.05501,-0.586682 -1.434402,-0.663127 -2.158535,-0.908073 -1.012593,-0.342514 -2.489845,-1.788027 -1.549056,-2.50086 h 2e-6 c 0.275681,-0.111821 0.753982,-0.313918 1.128814,-0.240131 4.421381,0.870235 2.557411,-1.774333 6.20258,-1.801846 1.006102,-0.0075 -1.035383,-1.242619 -1.580237,-1.851027 -0.68427,-0.764082 0.713639,-1.95844 1.051544,-2.474975 0.472866,-0.72281 3.8594,-0.408091 4.823217,-0.788238 0.8049,-0.317461 -0.192869,-1.458624 0.03793,-1.904071 0.235057,-0.453663 1.34119,-1.348755 1.887019,-1.807777 0.483386,-0.406505 1.10507,-0.0946 1.617794,0.271739 1.155327,0.825399 2.012811,0.700112 2.169974,1.334298"
       id="path1982"
       sodipodi:nodetypes="cssssssssssscsscsccssssssccssssssssc"
       inkscape:label="Epirus" /><path
       style="fill:#63b526;fill-opacity:1;stroke-width:0.200331"
       d="m 61.386017,64.799161 c -0.183342,-0.02344 -0.973652,1.969203 -0.624948,2.799301 0.212728,0.506386 1.26591,0.693901 1.564824,1.176964 0.0075,0.01216 -0.556892,0.929017 -0.587484,1.106104 -0.610015,3.5309 -3.048028,0.492532 -5.85525,2.807511 -0.550572,0.454023 0.387494,3.212438 1.636232,3.517838 0.345229,0.0996 1.624827,-0.686314 1.919556,-0.485904 0.21883,0.148801 0.878172,8.852408 2.30885,9.852066 0.456678,0.3191 3.242249,1.110689 3.842812,0.969193 0.774615,-0.18251 1.405493,0.747032 2.396012,0.586326 0.340298,-0.05518 0.254974,0.286554 0.589763,0.215574 0.729642,-0.154756 1.253132,0.797364 1.958803,0.634867 0.702921,-0.161851 3.864476,0.62668 6.058936,0.0065 0.716291,-0.202518 2.190198,-1.090182 2.435137,-1.418354 0.185947,-0.249126 0.141762,-1.806763 0.595083,-1.918107 0.406824,-0.09978 0.980834,-0.442757 1.15917,-0.731741 0.182253,-0.295323 2.157808,-0.297406 2.614625,-0.386075 1.70938,-0.277213 0.851886,-1.785856 1.42532,-2.440127 0.970536,-1.10732 1.431435,-2.984889 0.307612,-3.11055 -2.080494,-0.232626 -3.236713,-1.605156 -3.502193,-3.538763 -0.06482,-0.471944 -2.081374,-0.729829 -1.922126,-2.136798 0.139956,-1.236526 -0.772557,-2.179839 -0.751408,-3.007596 0.0082,-0.317593 -0.296228,-1.135434 -0.08043,-1.465304 0.30056,-0.459384 0.08825,-1.309845 -0.308563,-1.975862 -0.215774,-0.362166 -2.040054,-1.417437 -2.775283,-0.866706 -0.379207,0.284049 -0.625139,1.332107 -0.990856,1.415158 -0.887113,0.20146 -0.531142,-0.677964 -0.998342,-0.916024 -0.405148,-0.206434 -0.875691,-0.430842 -1.635705,-0.528031 -0.641394,-0.08203 -1.251205,0.378003 -1.77368,0.504087 -1.363284,0.328993 -3.201165,-1.115153 -4.464903,-0.714265 -1.841868,0.584284 -2.521348,0.307299 -4.541582,0.04897 z"
       id="path1892"
       sodipodi:nodetypes="sscsscsssssssssscsssssssssssssss"
       inkscape:label="westMacedonia" /><path
       style="fill:#63b526;fill-opacity:1;stroke-width:0.170076"
       d="m 92.532034,87.082635 c 0.634021,-0.897319 0.720862,-2.044151 0.04668,-2.918543 -0.522245,-0.677327 -0.270054,-1.749928 -0.909497,-2.306773 -0.911534,-0.793802 1.328558,-1.652525 1.754383,-2.224759 1.44604,-1.943215 -1.902133,-4.668355 2.446868,-7.355131 0.878258,-0.542578 0.942599,1.393095 0.827524,2.163741 -0.190268,1.274291 -2.671227,-0.529451 -2.029903,1.794691 0.467132,1.692922 2.991499,3.899671 4.256801,4.834729 1.63239,1.206322 3.85178,-0.781448 5.39159,0.234095 0.97078,0.640265 6.4159,6.500208 6.80037,6.263468 0.50443,-0.310689 1.39754,-3.649094 1.15049,-4.452959 -0.64885,-2.111394 -3.63376,-3.132291 -3.11403,-3.429786 1.6471,-0.942742 5.55185,4.600601 7.98812,3.211932 1.64989,-0.940458 -4.95419,-7.833875 -5.3279,-7.832745 -0.36033,9.79e-4 -0.71327,0.838513 -1.2698,0.589191 -0.1965,-0.08807 1.49568,-5.695673 -1.39792,-5.695673 -2.00709,0 2.94381,-4.801386 3.3867,-6.763648 0.361,-1.599459 -1.69101,-4.710395 -2.70484,-5.208843 -1.15946,-0.570041 -3.42999,-3.781282 -4.40032,-4.984016 -0.36667,-0.454467 -1.77887,0.950456 -2.22533,0.950456 -0.34265,0 -1.21329,-1.664328 -1.4104,-1.518323 -0.77889,0.576874 -1.24576,3.432659 -1.71241,3.650615 -2.493838,1.164753 -2.546494,-2.241922 -4.732573,-1.699356 -1.797697,0.446171 -2.834123,5.592539 -2.71803,5.699259 1.150613,1.057815 -2.728375,-1.356771 -4.164175,-1.356771 -4.252455,0 -7.212286,3.836437 -8.871188,5.319344 -0.282695,0.322949 0.975112,10.689123 3.635688,12.419019 0.616948,0.401126 1.095309,0.43041 1.796588,0.570644 0.07081,0.01415 0.476156,0.03311 0.931773,0.5148 0.313247,0.33114 0.472758,0.868676 0.381223,1.360169 -0.270103,1.450421 -0.368218,2.577988 -0.240319,3.050572 0.418146,1.545022 1.927884,-0.5542 2.404135,-0.144725 1.043331,0.897027 -1.586062,1.80106 -0.764721,2.476636 1.391455,1.144512 3.488719,1.429685 4.676449,2.76423 z"
       id="path1825"
       inkscape:label="centralMacedonia"
       sodipodi:nodetypes="csssssssssssscssssssssssscssssssscc" /><path
       style="fill:#63b526;fill-opacity:1;stroke-width:0.155147"
       d="m 136.85157,46.863009 c 0.49976,-1.718206 3.06052,-1.468634 4.13865,-0.567025 0.89431,0.747835 3.13635,8.323156 3.03187,8.599023 -0.47509,1.254443 -1.94632,1.936723 -2.5039,3.399654 -0.54628,1.433219 0.92752,3.64823 0.58672,5.0853 -0.27577,1.162664 -2.26206,0.830634 -2.63502,1.744246 -0.26519,0.649606 0.30993,1.910419 -0.25624,2.424505 -0.55512,0.5041 -3.00165,1.869928 -3.7278,1.651063 -0.634,-0.191085 -0.032,-2.281911 -0.64482,-2.579407 -1.22565,-0.594957 -4.10143,1.082578 -5.07922,0 -0.37825,-0.418798 -0.95801,-1.480399 -1.42031,-1.641826 -0.61167,-0.21357 -1.39541,1.359673 -2.03059,0.824624 -0.45896,-0.386619 0.0753,-1.642067 -0.54773,-1.938719 -0.54802,-0.26094 -1.27412,2.566157 -2.06747,2.526325 -1.14304,-0.05738 -3.41255,-2.030636 -4.51885,-1.031634 -2.124,1.91802 -4.03096,4.801516 -8.41811,2.37675 -0.7647,-0.422663 3.35593,-3.08822 3.26798,-6.196772 -0.0429,-0.77257 -2.29323,-1.927418 -2.83935,-2.183268 -0.18257,-0.08553 -1.02491,-0.485553 -1.38102,-1.57503 -0.26663,-0.815649 -0.96044,-1.618847 -1.0325,-2.543002 -0.11132,-1.426798 -0.37328,-2.658346 0.32656,-3.072353 2.05767,-2.811873 3.31529,-0.536098 4.08386,-0.970298 0.98534,-0.55666 1.06654,-2.15466 1.7796,-2.601023 3.01706,-1.888598 9.46065,3.958717 12.35979,6.008967 1.05047,0.74286 4.77077,-0.935755 5.55117,-1.670011 0.87633,-0.824541 1.82027,0.636326 3.02439,0.07219 0.94571,-0.443083 -0.1703,-4.654921 0.95234,-6.142284 z"
       id="path1760"
       inkscape:label="eastMacedonia"
       sodipodi:nodetypes="cssssssssssssssscssscsssssc" /><path
       style="fill:#63b526;fill-opacity:1;stroke-width:0.144139"
       d="m 70.35271,89.768246 c -0.148285,0.563152 -0.850728,0.917652 -1.073942,1.478072 -0.174967,0.439302 -1.975278,1.507347 -2.221542,1.894091 -0.496043,0.778986 3.204611,2.364971 3.676516,3.001783 0.468874,0.632722 0.863371,0.899649 1.06698,1.907576 0.09318,0.461243 -0.428011,1.121109 -0.451898,1.592269 -0.0042,0.08597 1.330014,0.481253 1.404985,0.515303 2.19765,0.99784 1.639592,-1.372891 3.732545,-1.083386 -0.341077,1.778386 1.383468,1.087656 2.003137,2.249636 0.02938,0.0551 -0.207649,0.30378 -0.148978,0.44483 0.529185,1.27234 0.500076,1.5154 1.979923,1.57213 0.470992,0.0181 0.923443,-0.31882 1.388963,-0.40112 0.06291,-0.0111 0.725072,-0.0353 0.737054,-0.1027 0.09129,-0.51383 -0.853471,-1.0152 -0.734513,-1.38886 0.08241,-0.25892 0.714514,-0.53683 0.855396,-0.89315 0.04122,-0.1042 0.273401,-0.660756 0.36973,-0.722558 0.258336,-0.165725 0.584825,0.308458 0.754417,0.400488 1.251437,0.67921 2.201359,1.16481 2.115171,2.865 0.511586,0.53475 1.52115,-0.0111 2.148682,0.26671 0.398297,0.176 0.577124,0.52845 1.055385,0.70494 0.375541,0.21397 0.732947,0.68167 1.062102,0.95038 0.166635,0.13604 0.546599,-0.0404 0.563518,0.1934 0.03046,0.42066 0.379949,-0.30839 0.659616,-0.31915 0.753838,-0.029 1.792526,0.1256 1.955018,-0.0978 0.425223,-0.58476 -0.616801,-0.60834 -0.754585,-0.85992 -0.07864,-0.14365 -0.05993,-0.33748 -0.148494,-0.48238 -0.165503,-0.27075 -0.650021,-0.2523 -0.777611,-0.49222 -0.104704,-0.19688 0.03657,-0.66629 -0.133324,-0.82867 -0.649895,-0.62139 -0.922544,0.42649 -0.848632,-1.03154 0.0149,-0.29403 -0.227088,-0.72645 -0.135789,-1.00068 0.07783,-0.233711 1.190321,0.15738 1.286181,-0.0204 0.247829,-0.45979 0.23472,-0.807621 0.853054,-1.023065 0.194959,-0.06785 0.07508,0.271127 0.177856,0.377997 0.454987,0.47306 0.921583,0.505312 1.546352,0.529281 1.141035,1.178327 -0.234148,1.285497 1.990402,0.788127 0.499483,-0.908304 -0.08185,-0.70003 -0.338099,-1.244757 -0.831163,-1.767072 -1.015981,-2.339886 -2.869396,-3.538553 -0.369522,-0.238962 -1.08314,-0.104749 -1.304283,-0.46144 -0.770591,-1.242669 -0.445046,-3.482955 -1.062268,-4.817674 -1.473612,-0.850203 -1.007821,-2.792446 -2.603629,-3.53899 -0.475637,-0.281633 -0.573898,-0.279116 -0.831882,-0.729929 -0.0536,-0.09373 -1.197421,-1.480985 -0.617557,-1.622427 0.340176,-0.08293 -1.410273,0.608721 -1.585135,0.588204 -0.14366,-0.01695 -0.180518,-1.690276 -0.290178,-1.616488 -0.750001,0.504633 -1.735473,2.284139 -2.066057,1.785058 -0.315996,0.06566 -1.71928,0.19999 -1.819047,0.533463 -0.111859,0.373928 -0.975665,-0.850979 -1.189,-0.477409 -0.313656,0.549157 -0.309622,1.979142 -0.640015,2.515286 -0.192068,0.311703 -1.546305,-0.533304 -1.563088,-0.202206 -0.595654,0.251696 -0.474154,2.06972 -1.10092,1.718937 -0.536503,-0.30028 -0.952123,-1.021643 -1.720082,-0.864598 -1.955778,0.400048 -0.758082,-0.261998 -1.96218,-0.0098 -0.248746,0.05216 -2.28607,-0.869176 -3.509122,0.05539 z"
       id="path2057"
       inkscape:label="Thessaly"
       sodipodi:nodetypes="csssssccsccccsssscccssssssscsssssccsssccsssscssscssscc" /><path
       style="fill:#63b526;fill-opacity:1;stroke-width:0.198319"
       d="m 57.192927,105.79143 c -0.208595,0.72912 0.801228,1.02938 0.473751,1.60135 -0.225981,0.39469 -0.969758,0.42398 -1.191248,0.86851 -1.162955,2.33407 2.801626,1.48755 2.951818,1.98441 0.09831,0.32523 -0.155293,1.17848 0.0262,1.42041 0.410705,0.54735 1.742889,0.0831 2.144081,0.78483 0.675949,1.18237 -0.748891,1.95479 -0.262193,3.08694 0.258111,0.60043 2.453204,-0.12048 1.825077,0.9975 -0.294077,0.52342 -1.049806,3.47113 -0.176152,3.842 3.003357,1.27487 4.767244,-1.96374 5.410202,-1.58963 0.295487,0.17194 0.217957,0.85378 0.490984,0.97129 1.176281,0.50646 0.938852,-0.17628 1.606294,1.03356 1.058393,-0.17179 2.800634,-0.34056 3.885712,-0.95283 0.47315,-0.267 1.114887,0.33849 1.320317,0.47465 0.06297,0.0416 0.80148,-0.37489 0.925384,-0.42949 0.462442,-0.20376 0.995969,-0.15587 1.432048,-0.33393 0.428461,-0.17496 -0.530767,-0.70865 -1.45348,-1.36654 -0.357046,-0.25458 -0.03205,9.8e-4 -0.313232,-0.24447 -0.866241,-0.75808 -0.562002,-0.53012 -0.02214,-1.47757 0.08533,-0.1497 1.299942,-1.24126 1.228464,-1.40575 -0.371367,-0.85462 -0.543766,-1.82544 -0.308575,-2.62095 0.345599,-1.16905 0.213986,-1.73479 -0.07084,-1.48343 -1.170876,1.03322 -2.16668,1.2801 -2.864086,1.10557 -0.682436,-0.17078 -0.688071,-0.78805 -0.95006,-1.20242 -0.366189,-0.57917 -0.259596,-1.29572 -0.03929,-2.3173 -0.300662,-0.94259 -1.38831,-0.97267 -2.218229,-1.54673 -0.709054,-0.49045 -0.914496,-0.91635 -0.549323,-1.65945 0.08687,-0.17685 -0.09119,-0.44285 0.0276,-0.80385 0.126929,-0.38575 -0.04389,-2.35951 -0.768478,-2.2332 -0.09857,-0.69582 -1.320191,1.04671 -1.853755,0.79764 -0.37957,-0.17715 -3.283365,-0.69747 -3.344579,-0.45679 -0.335004,1.3167 0.116763,0.9816 -0.631485,1.62723 -0.147952,0.12765 -1.239696,0.0433 -1.669351,0.003 -0.61831,-0.0569 -0.580384,0.47389 -0.927573,0.4841 -0.753593,0.0221 -1.619822,-1.04811 -1.513752,-0.63664 0.253876,0.98486 -0.04922,0.44454 -0.240659,0.77192 -0.16047,0.27438 -0.618284,-0.13899 -0.994698,-0.31561 -0.05368,-0.0253 -1.044074,0.0303 -1.111204,0.26492 z"
       id="path3456"
       sodipodi:nodetypes="ssssssssssccscsssssssssscssscssssssssss"
       inkscape:label="westGreece" /><path
       style="display:inline;fill:#63b526;fill-opacity:1;stroke-width:0.131427"
       d="m 87.92729,109.37381 c 0,-1.74101 4.112028,1.02409 3.910785,-0.65708 -0.07484,-0.62538 -6.372272,-0.28816 -6.246087,-0.2472 0.652367,0.21192 3.11392,-0.26206 3.321686,-1.35192 0.138863,-0.72843 -0.794916,-0.19497 -1.018359,-0.42659 -0.325714,-0.33762 0.140198,-1.25461 -0.02036,-1.55226 -0.168192,-0.31179 -0.430166,-1.45386 -0.730583,-1.6629 -0.228913,-0.15925 -1.189994,0.85635 -1.420297,0.85635 -0.577444,0 0.154672,-0.64393 -0.199505,-1.41207 0.02176,-0.55383 -1.123,-1.47304 -1.317087,-1.86113 -0.413615,-0.82706 -1.708428,0.17572 -2.383793,0.15761 -0.311212,-0.009 -0.654429,1.65251 -0.773467,2.09537 -0.153242,0.57017 -0.952808,-0.12191 -1.153459,0.68266 -0.07902,0.31694 0.774673,-2.2163 0.368307,-2.08307 -0.417761,0.13688 -0.789513,1.6817 -1.056234,1.62395 -2.160947,-0.46797 0.05196,-0.74843 -0.799692,-1.27072 -0.290945,-0.17842 0.809516,-0.67146 0.597607,-1.08811 -0.120928,-0.23777 -2.415706,-0.45018 -2.612863,-0.61991 -0.127769,-0.11004 -2.373833,1.32496 -2.548192,1.44098 -0.349738,0.2327 -0.995328,0.38619 -1.261072,0.58584 -0.188795,0.14182 -1.786562,0.21796 -1.921179,0.43833 0.446148,0.74749 0.158105,2.48464 0.392256,3.17475 0.472447,1.39246 1.462072,1.6289 1.992517,2.74243 0.718283,1.50779 -0.354694,0.64889 3.622065,2.40676 0.461387,0.20398 0.143149,-0.6901 0.646041,0.46298 0.173577,0.39798 1.139371,0.12347 1.139371,0.61151 0,0.31166 0.564735,1.54599 0.423069,1.77969 -0.557349,0.91942 -1.457587,1.17811 -1.383281,2.38003 0.0073,0.12007 -0.0033,0.0936 -0.0033,0.14272 1.009275,0.0401 1.58257,0.881 2.371108,1.45643 0.111254,0.0814 0.928232,-0.51132 1.069454,-0.60216 0.410733,-0.26417 0.995731,0.70648 1.452836,0.32751 0.317167,-0.26295 -0.05171,-1.52829 0.414078,-1.69701 0.86957,-0.31499 0.745755,2.25545 0.937807,2.35997 1.321181,0.71897 0.728907,-1.05081 1.755338,-1.16236 -0.619747,1.63287 0.736423,0.90439 0.996843,1.47102 0.13871,0.30182 -0.359147,0.50301 -0.262936,0.84433 0.06309,0.22383 0.923372,0.24771 1.095691,0.32272 0.236777,0.10291 0.03435,0.66965 0.253393,0.77211 0.770269,0.36039 0.536332,-0.34705 0.941677,-0.64931 0.410618,-0.30616 0.530394,0.63038 0.765642,0.79401 0.486011,0.33816 0.97375,0.037 1.541234,0.5043 0.354856,0.0802 0.178538,-0.4593 0.375621,-0.58882 0.169807,-0.1116 0.418485,0.24218 0.497154,0.18866 0.516046,-0.35089 -0.951878,2.16371 -0.192366,1.81963 1.165731,-0.52808 2.193168,-1.05207 3.478596,-1.6088 0.04566,-0.0196 0.773279,-0.0986 0.854746,-0.47323 0.113929,-0.52392 -0.167188,-0.97224 0.06728,-1.4172 0.08629,-0.1636 0.163317,-1.38351 0.09766,-1.55207 -0.166918,-0.42866 0.385352,-1.51242 0.212452,-1.95024 -0.171855,-0.43517 0.284526,-1.90919 -0.09724,-2.23899 -0.167429,-0.14462 -1.789286,0.88761 -2.921184,-0.23159 -0.28083,-0.27766 -0.412267,-4.26603 -2.036519,-2.58623 -0.08315,0.0603 0.123246,-0.98158 0.06295,-1.10638 -0.970391,-2.00902 -0.666632,0.37613 -2.317732,-0.44218 -0.315635,-0.15643 -1.238554,0.44121 -1.583786,0.21702 z"
       id="path3557"
       sodipodi:nodetypes="cscssssscssssscssssscssssssscssssccsssssscssssssssssccscc"
       inkscape:label="centralGreece" /><path
       style="fill:#63b526;fill-opacity:1;stroke-width:0.176519"
       d="m 96.308125,112.69049 c 1.224773,0.33824 0.335624,1.36775 0.407134,1.68352 0.06405,0.28296 0.530488,0.56974 0.629231,0.62861 0.323189,0.19266 0.897833,0.25936 0.879749,0.30843 -0.225031,0.61075 0.09556,-0.17693 0.544958,0.52648 0.216863,0.33936 0.889033,0.23208 1.566883,0.38841 1.79554,0.41426 4.36398,0.70284 5.40694,1.37662 0.29851,0.19287 -0.52469,0.66809 -0.46451,0.89739 0.0538,0.20545 0.73258,0.13831 1.00534,0.28434 0.86518,0.46301 -0.0326,1.02488 0.0781,1.38338 0.0804,0.2598 1.53447,0.79956 1.48312,0.90121 -0.23936,0.47474 -0.94542,0.65864 -0.68285,1.26839 0.18202,0.42269 1.98177,0.59484 2.38907,0.85524 0.46715,0.29866 -0.25186,1.41185 0.81786,1.9921 0.30064,0.16312 1.15637,0.10325 1.44898,0.0801 0.26734,-0.0215 0.19373,-0.4984 0.38451,-0.36211 2.11335,1.50914 3.89435,0.27609 4.70076,-1.05627 0.68675,-1.42274 -0.31845,-1.86237 -1.64919,-2.1001 -0.97879,-0.17488 -2.21157,-0.11416 -2.68002,-0.89856 -0.81366,-1.36245 0.38127,-2.27307 -0.28018,-3.73631 -0.18392,-0.40692 1.20623,-1.25353 1.5047,-2.00645 0.16671,-0.42046 -0.78732,-0.68224 -1.25401,-0.92581 -0.42621,-0.22249 -0.018,-1.1063 -0.68814,-1.45425 0.69209,-1.03276 -2.81134,-2.23647 -4.30876,-2.6169 -1.16993,-0.29722 -2.11739,-0.7355 -2.93808,-1.2391 -0.43031,-0.26404 -2.52507,0.21073 -2.98332,-0.0279 -2.975062,-1.54951 -1.90881,-0.22013 -2.08667,-1.79086 -0.0189,-0.16692 -1.996603,-0.43132 -2.225377,-0.55169 -0.377317,-0.19847 0.227667,-0.84344 -0.434358,-1.06641 -2.926564,-0.98576 -9.269542,1.00954 -9.699483,0.95771 0.04407,0.1297 0.37067,0.77363 0.743598,0.9976 0.71431,0.42901 2.392343,0.0378 3.124238,0.45689 0.547763,0.31371 0.315378,2.43631 0.660396,2.05873 1.678793,-1.83715 2.040213,0.8337 2.309705,2.07581 0.08492,0.3914 1.334597,0.38477 1.615996,0.70536 z"
       id="path3636"
       sodipodi:nodetypes="cssssscscscssssccssssscsssssscscsscc"
       inkscape:label="Evia" /><path
       style="display:inline;fill:#63b526;fill-opacity:1;stroke-width:0.175227"
       d="m 88.826425,125.03596 c 0.847582,0.85939 -0.0084,1.77437 0.693002,2.70014 0.110169,0.14541 4.019117,-0.17889 4.489502,-0.40403 0.968809,-0.46382 1.164327,-1.38597 2.838482,-0.76117 0.460635,0.17188 -0.301984,0.71698 0.154055,0.95483 0.511048,0.26652 1.335214,0.10659 1.789904,0.39238 0.56645,0.35607 1.69581,1.92252 2.03407,2.54155 0.1311,0.23997 0.91935,-0.0861 1.00416,0.10713 0.57181,1.30199 1.25763,2.96626 3.13,2.57384 1.04483,-0.21899 0.93566,-2.51665 1.08862,-3.63008 0.0321,-0.23325 -0.53955,-0.15332 -0.67862,-0.35225 -0.26052,-0.37251 0.32175,-1.0925 0.17871,-1.39232 -1.13733,-2.38388 0.93201,-4.09133 1.4289,-5.80691 0.74737,-2.58048 -7.25526,-4.40825 -9.3709,-4.40825 -2.370483,1.2379 0.72524,4.0639 -0.654986,6.05858 -0.107714,0.15568 -1.042662,-1.69235 -1.199934,-1.84051 -0.77174,-0.72706 -0.937078,0.52999 -1.995764,-0.0382 -0.928033,0.14595 -0.461849,0.87134 -0.998608,1.59594 -0.553264,0.7469 -0.647675,-0.11675 -1.00825,0.005 -0.211748,0.63918 -0.439065,1.04193 -1.455443,1.24895 -0.399329,0.0815 -0.831756,0.52033 -1.4669,0.45522 z"
       id="path3715"
       inkscape:label="Attica"
       sodipodi:nodetypes="csssssssssssscsscscscc" /><path
       style="display:inline;fill:#63b526;fill-opacity:1;stroke-width:0.129264"
       d="m 84.877492,126.76786 c 0.503166,-9.7e-4 1.399439,0.085 0.879938,-0.47109 -0.19898,-0.21295 -1.244047,-0.0394 -1.301849,-0.17646 -0.226735,-0.53787 0.414323,-0.42155 0.872678,-0.58808 0.21822,-0.0792 0.416076,-0.22379 0.641391,-0.28939 0.296767,-0.0864 1.926898,0.2579 2.32539,-0.0598 0.19248,0.12767 0.536939,0.47293 0.540848,0.8399 -0.02153,0.0862 0.08214,0.28855 0.04152,0.56301 -0.02952,0.19938 0.05683,0.47871 0.01084,0.70763 -0.07969,0.39626 0.05027,0.79258 0.09149,0.93835 0.161765,0.57157 -1.592311,-0.46853 -1.588849,0.16644 2.42e-4,0.0446 -0.511436,-1.20888 -0.439873,-1.17075 0.459645,0.24498 1.442844,0.8808 1.9976,0.87924 0.147652,0.16158 0.520772,0.85547 0.04289,0.73651 -0.696986,-0.1735 -0.794391,0.20239 -0.677789,0.61145 0.09056,0.31778 0.431114,0.0575 0.529262,0.72384 0.172483,1.17731 0.227579,1.16202 1.439967,1.80893 1.522642,0.8125 -0.4104,2.63722 -1.588642,2.11371 -1.12356,-0.49923 -2.118346,-1.24904 -2.960828,-1.88074 -0.248428,-0.18628 -1.105024,0.23985 -1.446636,0.0771 -0.285188,-0.13593 -1.249303,-0.9886 -1.830014,-0.7296 -0.156163,0.0697 0.06924,1.18316 0.111523,1.41585 0.716183,0.49048 2.06863,4.21238 2.226915,4.32789 0.217374,0.15862 1.144229,0.0805 1.328004,0.27538 0.7003,0.74324 0.09662,1.91695 0.605663,2.63789 0.404077,0.57222 1.176839,0.7672 0.967718,1.53522 -0.09674,0.35526 -0.625877,0.30966 -0.824492,0.5882 -0.312159,0.43773 0.880148,1.5247 0.320971,1.89769 -1.231837,0.82176 -2.584121,-0.42646 -3.012564,-1.20209 -0.04057,-0.0735 -0.54509,0.0101 -0.649961,-0.0704 -0.288745,-0.22124 0.330413,-0.33941 0.424817,-0.4019 0.224427,-0.14869 -0.157626,-1.08803 -0.203356,-1.23749 -0.875314,0.42461 -2.558067,-0.36431 -3.339202,-0.0551 -0.671143,0.26565 -0.515334,2.08335 -1.06153,2.08489 -0.533731,9.8e-4 -1.450455,0.2131 -1.990694,9.8e-4 -0.227706,-0.0889 -1.117389,-2.41171 -1.456676,-2.5636 -0.470267,-0.21045 -0.928407,-0.56593 -1.457065,-0.69107 -0.07443,-0.0176 -1.026893,-0.10798 -0.964004,-0.23249 0.634526,-1.25539 0.373226,-1.25675 -1.682028,-1.43243 -0.285617,0.36403 -0.479862,0.81114 -0.796786,1.14717 -0.719854,0.7633 1.69667,1.74805 -0.278266,2.47017 -0.245957,0.0899 -2.86617,-1.40531 -3.088917,-1.6969 -0.41916,-0.54868 0.81484,-0.40779 0.407205,-0.98869 -0.833317,-1.18752 -2.033068,-1.26103 -2.041885,-2.8773 2.722115,-1.77469 1.587942,-4.94598 -1.795288,-6.20215 -0.511239,-0.18981 -1.106026,0.22832 -1.65325,-0.0311 -0.615075,-0.29165 -0.22941,-1.58151 -1.968268,-2.29516 -0.254442,-0.26446 -0.484969,-0.82634 -0.300921,-1.16658 0.04721,-0.0873 1.208712,-0.19322 1.413765,-0.29244 0.691123,-0.33436 1.175595,-0.83626 1.629442,-1.33027 0.539752,-0.58755 -0.837247,-1.71498 0.24501,-1.97534 1.060717,-0.25515 3.486721,1.42317 4.435453,0.58524 1.041514,-0.91989 4.008052,-3.34447 5.68333,-1.531 1.952369,-0.58902 1.123491,1.40317 2.059751,1.68717 0.524619,0.15917 1.340206,-0.18581 1.849474,0.0304 0.338521,0.1436 0.242563,0.53676 0.534661,0.66132 0.478845,0.20426 1.636249,-0.34956 2.181312,-0.24827 1.790841,0.33283 3.036213,2.09565 4.560824,2.37595 z"
       id="path4932"
       sodipodi:nodetypes="csscsscssscsssccssssscssssscscscscsscccsssscsscssssscsssscc"
       inkscape:label="peloponnese" /></g><g
     inkscape:groupmode="layer"
     id="g3094"
     inkscape:label="terraB copiar"
     style="opacity:0.141582;fill:#004305;fill-opacity:1;filter:url(#filter3096)"><path
       style="opacity:1;fill:#004305;fill-opacity:1;stroke-width:0.167888"
       d="m 97.731762,158.01046 c 0.832504,0.14457 0.628329,1.00221 1.056048,1.26959 0.25213,0.15759 0.75587,-0.37623 0.94207,-0.49756 0.51071,-0.33261 1.5023,0.15531 1.92695,-0.41386 0.22304,-0.29898 0.34335,-0.81434 0.533,-1.16972 0.0989,-0.18541 0.18132,-0.40547 0.31778,-0.5199 0.39556,-0.0999 1.36264,-0.0382 1.65382,-0.41807 0.0781,-0.10193 0.005,-0.37139 0.07,-0.4662 0.12347,-0.18145 1.82076,0.16682 2.15784,-0.006 0.22833,-0.23554 0.32307,-0.29217 0.60136,-0.53417 0.30968,0.66458 0.56937,1.04463 0.87596,1.7926 1.95791,-1.04306 2.20081,-1.11269 4.25477,0.0916 0.24179,0.14176 0.62865,-0.65048 0.74416,-0.85011 0.35244,-0.60915 0.89933,0.44644 1.12525,0.34599 0.21368,-0.0951 0.39542,-0.57755 0.60894,-0.71499 0.28792,-0.18537 1.56218,-0.69391 1.81964,-0.11484 0.24706,0.55577 0.62444,3.56263 0.62355,4.19118 0.76231,-0.21246 0.53331,-1.19381 1.45025,-1.38019 0.26061,-0.053 -0.1608,-0.90284 -0.15249,-1.33353 0.006,-0.34548 0.74285,-0.72548 0.9942,-0.67185 0.46051,0.0982 1.3538,1.34477 1.75817,0.63113 0.50356,-0.8887 -0.47698,-2.76448 0.60597,-3.03823 1.27694,-0.32278 0.94501,2.44429 1.39357,3.41702 0.59027,1.28017 0.99978,1.48238 0.70913,3.00137 -0.10766,0.56267 0.15311,1.38055 0.1298,2.00335 -0.063,1.68153 -3.01506,1.44207 -3.57794,0.8409 -0.21153,-0.22592 -1.59676,1.22268 -1.91906,1.30415 -0.50884,0.12863 -1.69145,-0.29137 -2.0485,0.21171 -0.69625,0.981 -1.93734,1.72948 -2.99569,1.06631 -0.73327,1.58822 -5.62233,4.47672 -6.79351,4.26985 -0.22371,-0.0395 -0.5321,-3.41119 -1.07886,-4.2718 -0.50785,-0.79935 -1.54047,0.54682 -2.14657,0.1649 -0.89246,-0.56238 -2.33597,-2.02388 -3.19683,-1.96296 -0.46646,1.71251 -1.969522,0.0868 -2.817621,0.94173 -0.20148,0.20308 -0.239785,0.7487 -0.60098,0.63535 -0.245449,-0.0771 -0.434953,-1.01005 -0.75175,-1.1714 -0.570302,-0.29049 -2.050739,-0.23504 -2.167586,0.45939 -1.57186,1.3692 -3.380719,0.57821 -4.55084,-2.03291 -0.171582,-0.3829 0.158267,-0.72266 0.199197,-1.02516 0.04795,-0.35446 -0.352573,-0.72895 -0.331441,-1.07278 0.02277,-0.37077 0.394539,-0.35612 0.435869,-0.66607 0.08048,-0.60372 -0.803461,-1.46118 -0.759475,-2.17697 0.05309,-0.86374 0.06878,-1.84046 0.118496,-2.64937 0.0428,-0.69626 1.14872,2.12549 1.780029,1.96592 0.0342,-0.009 0.319228,-0.0253 0.325677,-0.11359 0.125788,-1.71111 -1.720371,-3.06135 -0.595205,-4.40336 0.662297,-0.78995 1.022829,2.24741 1.492687,2.29017 0.368147,0.0335 1.375223,0.73596 1.653308,0.35217 0.359856,-0.49662 0.784385,-0.35312 1.167913,-0.75551 0.220528,-0.23141 0.03772,-1.158 0.27779,-1.39064 0.241132,-0.23366 0.712176,-0.0229 0.995123,0.0562 1.227398,0.34413 0.02454,2.45255 -0.129798,2.94618 -0.07221,0.0343 -0.220164,0.23584 -0.221403,0.40364 -3e-4,0.031 0.08849,0.003 0.0886,0.003 0.182906,0.029 0.411771,0.0595 0.589006,0.0147 0.127233,-0.0322 0.274258,0.009 0.406027,0.005 0.103874,-0.002 0.04234,-0.4702 0.105443,-0.54414 0.04947,-0.058 0.542413,-0.23309 0.611914,-0.13751 0.04173,0.0572 0.132035,0.44079 0.15009,0.52024 0.242635,1.06844 0.06403,0.5181 0.08616,1.30776 z"
       id="path3066"
       sodipodi:nodetypes="cscsscsscccssssscscssssssssscssscssscssssssscsssssscccssssscc"
       inkscape:label="Creta" /><path
       style="fill:#004305;fill-opacity:1;stroke-width:0.277903"
       d="m 124.4047,80.913578 c -0.0643,0.795355 -2.04149,1.716441 -1.81896,2.373088 0.94484,2.788254 4.30938,5.221005 7.26979,3.320943 1.54562,-0.992021 -0.7152,-4.592642 3.11001,-3.853869 2.40467,0.46444 -4.72569,6.122027 0.63731,4.669355 1.45558,-0.394272 9.29871,0.842708 9.31623,-1.184143 0.006,-0.753251 -3.98852,-0.998435 -3.78748,-2.186259 0.49832,-2.943736 2.66262,-0.147672 3.32936,0.849306 0.34327,0.513251 1.31426,-1.151529 0.67022,-2.076588 -1.75011,-2.513699 -5.64582,-3.2388 -5.17317,-6.111319 0.0914,-0.554898 -1.13267,-0.704193 -1.65018,-0.726054 -1.27253,-0.05379 -1.0493,-1.076264 -1.96441,-1.520592 -0.11002,-0.05336 -5.11034,1.194551 -5.26075,1.375823 -0.37921,0.457117 0.81847,1.803909 0.17822,2.467464 -1.19373,1.237197 -3.47515,1.551927 -4.85619,2.602845 z"
       id="path3068"
       sodipodi:nodetypes="cssssssscsscssc"
       inkscape:label="northAegean" /><path
       style="display:inline;opacity:1;fill:#004305;fill-opacity:1;stroke-width:0.294438"
       d="m 133.9172,124.9855 c 3.47054,3.40706 -2.62043,2.38755 -2.62043,4.47973 0,0.46487 1.82547,0.74147 2.07665,1.10989 1.04312,1.52996 -2.91424,3.89212 -1.3794,5.46256 5.1461,5.26531 9.03189,-2.58342 10.97142,-3.18589 0.89194,-0.27704 5.45115,-0.93079 5.61439,-1.39554 0.22099,-0.62882 -0.9184,-1.57701 -0.49366,-2.23104 1.45528,-2.24091 8.86319,-8.01715 4.02397,-10.42554 -1.74388,-0.8679 -15.36464,5.74333 -18.19294,6.18583 z"
       id="path3070"
       inkscape:label="southAegean" /><path
       style="fill:#004305;fill-opacity:1;stroke:none;stroke-width:0.490626;stroke-opacity:1"
       d="m 146.42124,139.78465 c 0.27703,-1.10966 0.90577,-1.82621 2.02489,-2.52351 0.45719,-0.28493 1.22529,-0.5632 1.70158,-0.66166 0.54952,-0.11352 0.84133,-1.72286 1.55836,-1.78827 0.91078,-0.0831 0.46006,1.66265 -0.10237,2.93047 -0.33158,0.74765 -0.77226,1.26349 -0.80595,1.31692 -0.61585,0.97658 0.82163,3.15202 -0.51283,3.85168 -1.46456,0.76791 -3.67931,-1.73803 -3.86379,-3.12563 z"
       id="path3072"
       sodipodi:nodetypes="cssssssc" /><path
       style="fill:#004305;fill-opacity:1;stroke-width:0.177345"
       d="m 60.785996,86.66035 c 0.122769,0.261155 0.89016,0.238413 1.339162,0.277461 0.653953,0.05692 2.624997,0.05227 2.764436,0.444756 0.116584,0.328215 1.659708,0.36884 2.276269,0.962066 0.398039,0.382988 0.0174,1.020769 0.153767,1.549905 0.121843,0.472874 0.462725,1.261827 0.308193,1.389683 -0.458293,0.379144 -0.241515,0.817569 -0.515298,1.221397 -0.36055,0.531771 -0.795267,0.800195 -0.651459,2.060639 0.138198,1.21134 1.325179,1.27024 2.116731,2.294055 0.484613,0.626839 1.392516,1.403889 1.442702,2.112215 0.03953,0.558155 0.01928,1.533663 -0.235058,2.505753 -0.494779,1.89107 -5.123938,-0.0996 -6.670998,0.43966 -1.238543,0.43167 1.510451,1.64272 -1.478529,2.08077 -0.581394,-0.0425 -0.401702,0.0395 -0.826743,-0.0701 -1.725011,-0.44441 -0.942316,-0.19706 -1.550449,0.17161 -1.104446,0.66959 -1.660911,-0.8534 -1.685058,-0.84152 -0.969917,0.47634 1.26375,1.98549 -1.36827,1.37169 -0.606694,-0.14145 -1.751458,-0.69548 -2.296254,-0.85254 -0.152388,-0.044 0.103528,-0.34103 -0.399619,-1.39798 -1.493482,-0.70786 -2.907084,-2.3321 -4.356873,-2.35136 -0.9095,-0.012 -1.734779,-0.304481 -2.152876,-1.018316 -0.219344,-0.374453 -0.320079,-0.893974 -0.622786,-1.1699 -0.529101,-0.482328 -1.711448,-1.166517 -1.283586,-1.752123 0.504567,-0.690607 0.250252,-0.894993 0.279012,-1.201708 0.05501,-0.586682 -1.434402,-0.663127 -2.158535,-0.908073 -1.012593,-0.342514 -2.489845,-1.788027 -1.549056,-2.50086 h 2e-6 c 0.275681,-0.111821 0.753982,-0.313918 1.128814,-0.240131 4.421381,0.870235 2.557411,-1.774333 6.20258,-1.801846 1.006102,-0.0075 -1.035383,-1.242619 -1.580237,-1.851027 -0.68427,-0.764082 0.713639,-1.95844 1.051544,-2.474975 0.472866,-0.72281 3.8594,-0.408091 4.823217,-0.788238 0.8049,-0.317461 -0.192869,-1.458624 0.03793,-1.904071 0.235057,-0.453663 1.34119,-1.348755 1.887019,-1.807777 0.483386,-0.406505 1.10507,-0.0946 1.617794,0.271739 1.155327,0.825399 2.012811,0.700112 2.169974,1.334298"
       id="path3074"
       sodipodi:nodetypes="cssssssssssscsscsccssssssccssssssssc"
       inkscape:label="Epirus" /><path
       style="fill:#004305;fill-opacity:1;stroke-width:0.200331"
       d="m 61.386017,64.799161 c -0.183342,-0.02344 -0.973652,1.969203 -0.624948,2.799301 0.212728,0.506386 1.26591,0.693901 1.564824,1.176964 0.0075,0.01216 -0.556892,0.929017 -0.587484,1.106104 -0.610015,3.5309 -3.048028,0.492532 -5.85525,2.807511 -0.550572,0.454023 0.387494,3.212438 1.636232,3.517838 0.345229,0.0996 1.624827,-0.686314 1.919556,-0.485904 0.21883,0.148801 0.878172,8.852408 2.30885,9.852066 0.456678,0.3191 3.242249,1.110689 3.842812,0.969193 0.774615,-0.18251 1.405493,0.747032 2.396012,0.586326 0.340298,-0.05518 0.254974,0.286554 0.589763,0.215574 0.729642,-0.154756 1.253132,0.797364 1.958803,0.634867 0.702921,-0.161851 3.864476,0.62668 6.058936,0.0065 0.716291,-0.202518 2.190198,-1.090182 2.435137,-1.418354 0.185947,-0.249126 0.141762,-1.806763 0.595083,-1.918107 0.406824,-0.09978 0.980834,-0.442757 1.15917,-0.731741 0.182253,-0.295323 2.157808,-0.297406 2.614625,-0.386075 1.70938,-0.277213 0.851886,-1.785856 1.42532,-2.440127 0.970536,-1.10732 1.431435,-2.984889 0.307612,-3.11055 -2.080494,-0.232626 -3.236713,-1.605156 -3.502193,-3.538763 -0.06482,-0.471944 -2.081374,-0.729829 -1.922126,-2.136798 0.139956,-1.236526 -0.772557,-2.179839 -0.751408,-3.007596 0.0082,-0.317593 -0.296228,-1.135434 -0.08043,-1.465304 0.30056,-0.459384 0.08825,-1.309845 -0.308563,-1.975862 -0.215774,-0.362166 -2.040054,-1.417437 -2.775283,-0.866706 -0.379207,0.284049 -0.625139,1.332107 -0.990856,1.415158 -0.887113,0.20146 -0.531142,-0.677964 -0.998342,-0.916024 -0.405148,-0.206434 -0.875691,-0.430842 -1.635705,-0.528031 -0.641394,-0.08203 -1.251205,0.378003 -1.77368,0.504087 -1.363284,0.328993 -3.201165,-1.115153 -4.464903,-0.714265 -1.841868,0.584284 -2.521348,0.307299 -4.541582,0.04897 z"
       id="path3076"
       sodipodi:nodetypes="sscsscsssssssssscsssssssssssssss"
       inkscape:label="westMacedonia" /><path
       style="fill:#004305;fill-opacity:1;stroke-width:0.170076"
       d="m 92.532034,87.082635 c 0.634021,-0.897319 0.720862,-2.044151 0.04668,-2.918543 -0.522245,-0.677327 -0.270054,-1.749928 -0.909497,-2.306773 -0.911534,-0.793802 1.328558,-1.652525 1.754383,-2.224759 1.44604,-1.943215 -1.902133,-4.668355 2.446868,-7.355131 0.878258,-0.542578 0.942599,1.393095 0.827524,2.163741 -0.190268,1.274291 -2.671227,-0.529451 -2.029903,1.794691 0.467132,1.692922 2.991499,3.899671 4.256801,4.834729 1.63239,1.206322 3.85178,-0.781448 5.39159,0.234095 0.97078,0.640265 6.4159,6.500208 6.80037,6.263468 0.50443,-0.310689 1.39754,-3.649094 1.15049,-4.452959 -0.64885,-2.111394 -3.63376,-3.132291 -3.11403,-3.429786 1.6471,-0.942742 5.55185,4.600601 7.98812,3.211932 1.64989,-0.940458 -4.95419,-7.833875 -5.3279,-7.832745 -0.36033,9.79e-4 -0.71327,0.838513 -1.2698,0.589191 -0.1965,-0.08807 1.49568,-5.695673 -1.39792,-5.695673 -2.00709,0 2.94381,-4.801386 3.3867,-6.763648 0.361,-1.599459 -1.69101,-4.710395 -2.70484,-5.208843 -1.15946,-0.570041 -3.42999,-3.781282 -4.40032,-4.984016 -0.36667,-0.454467 -1.77887,0.950456 -2.22533,0.950456 -0.34265,0 -1.21329,-1.664328 -1.4104,-1.518323 -0.77889,0.576874 -1.24576,3.432659 -1.71241,3.650615 -2.493838,1.164753 -2.546494,-2.241922 -4.732573,-1.699356 -1.797697,0.446171 -2.834123,5.592539 -2.71803,5.699259 1.150613,1.057815 -2.728375,-1.356771 -4.164175,-1.356771 -4.252455,0 -7.212286,3.836437 -8.871188,5.319344 -0.282695,0.322949 0.975112,10.689123 3.635688,12.419019 0.616948,0.401126 1.095309,0.43041 1.796588,0.570644 0.07081,0.01415 0.476156,0.03311 0.931773,0.5148 0.313247,0.33114 0.472758,0.868676 0.381223,1.360169 -0.270103,1.450421 -0.368218,2.577988 -0.240319,3.050572 0.418146,1.545022 1.927884,-0.5542 2.404135,-0.144725 1.043331,0.897027 -1.586062,1.80106 -0.764721,2.476636 1.391455,1.144512 3.488719,1.429685 4.676449,2.76423 z"
       id="path3078"
       inkscape:label="centralMacedonia"
       sodipodi:nodetypes="csssssssssssscssssssssssscssssssscc" /><path
       style="fill:#004305;fill-opacity:1;stroke-width:0.155147"
       d="m 136.85157,46.863009 c 0.49976,-1.718206 3.06052,-1.468634 4.13865,-0.567025 0.89431,0.747835 3.13635,8.323156 3.03187,8.599023 -0.47509,1.254443 -1.94632,1.936723 -2.5039,3.399654 -0.54628,1.433219 0.92752,3.64823 0.58672,5.0853 -0.27577,1.162664 -2.26206,0.830634 -2.63502,1.744246 -0.26519,0.649606 0.30993,1.910419 -0.25624,2.424505 -0.55512,0.5041 -3.00165,1.869928 -3.7278,1.651063 -0.634,-0.191085 -0.032,-2.281911 -0.64482,-2.579407 -1.22565,-0.594957 -4.10143,1.082578 -5.07922,0 -0.37825,-0.418798 -0.95801,-1.480399 -1.42031,-1.641826 -0.61167,-0.21357 -1.39541,1.359673 -2.03059,0.824624 -0.45896,-0.386619 0.0753,-1.642067 -0.54773,-1.938719 -0.54802,-0.26094 -1.27412,2.566157 -2.06747,2.526325 -1.14304,-0.05738 -3.41255,-2.030636 -4.51885,-1.031634 -2.124,1.91802 -4.03096,4.801516 -8.41811,2.37675 -0.7647,-0.422663 3.35593,-3.08822 3.26798,-6.196772 -0.0429,-0.77257 -2.29323,-1.927418 -2.83935,-2.183268 -0.18257,-0.08553 -1.02491,-0.485553 -1.38102,-1.57503 -0.26663,-0.815649 -0.96044,-1.618847 -1.0325,-2.543002 -0.11132,-1.426798 -0.37328,-2.658346 0.32656,-3.072353 2.05767,-2.811873 3.31529,-0.536098 4.08386,-0.970298 0.98534,-0.55666 1.06654,-2.15466 1.7796,-2.601023 3.01706,-1.888598 9.46065,3.958717 12.35979,6.008967 1.05047,0.74286 4.77077,-0.935755 5.55117,-1.670011 0.87633,-0.824541 1.82027,0.636326 3.02439,0.07219 0.94571,-0.443083 -0.1703,-4.654921 0.95234,-6.142284 z"
       id="path3080"
       inkscape:label="eastMacedonia"
       sodipodi:nodetypes="cssssssssssssssscssscsssssc" /><path
       style="fill:#004305;fill-opacity:1;stroke-width:0.144139"
       d="m 70.35271,89.768246 c -0.148285,0.563152 -0.850728,0.917652 -1.073942,1.478072 -0.174967,0.439302 -1.975278,1.507347 -2.221542,1.894091 -0.496043,0.778986 3.204611,2.364971 3.676516,3.001783 0.468874,0.632722 0.863371,0.899649 1.06698,1.907576 0.09318,0.461243 -0.428011,1.121109 -0.451898,1.592269 -0.0042,0.08597 1.330014,0.481253 1.404985,0.515303 2.19765,0.99784 1.639592,-1.372891 3.732545,-1.083386 -0.341077,1.778386 1.383468,1.087656 2.003137,2.249636 0.02938,0.0551 -0.207649,0.30378 -0.148978,0.44483 0.529185,1.27234 0.500076,1.5154 1.979923,1.57213 0.470992,0.0181 0.923443,-0.31882 1.388963,-0.40112 0.06291,-0.0111 0.725072,-0.0353 0.737054,-0.1027 0.09129,-0.51383 -0.853471,-1.0152 -0.734513,-1.38886 0.08241,-0.25892 0.714514,-0.53683 0.855396,-0.89315 0.04122,-0.1042 0.273401,-0.660756 0.36973,-0.722558 0.258336,-0.165725 0.584825,0.308458 0.754417,0.400488 1.251437,0.67921 2.201359,1.16481 2.115171,2.865 0.511586,0.53475 1.52115,-0.0111 2.148682,0.26671 0.398297,0.176 0.577124,0.52845 1.055385,0.70494 0.375541,0.21397 0.732947,0.68167 1.062102,0.95038 0.166635,0.13604 0.546599,-0.0404 0.563518,0.1934 0.03046,0.42066 0.379949,-0.30839 0.659616,-0.31915 0.753838,-0.029 1.792526,0.1256 1.955018,-0.0978 0.425223,-0.58476 -0.616801,-0.60834 -0.754585,-0.85992 -0.07864,-0.14365 -0.05993,-0.33748 -0.148494,-0.48238 -0.165503,-0.27075 -0.650021,-0.2523 -0.777611,-0.49222 -0.104704,-0.19688 0.03657,-0.66629 -0.133324,-0.82867 -0.649895,-0.62139 -0.922544,0.42649 -0.848632,-1.03154 0.0149,-0.29403 -0.227088,-0.72645 -0.135789,-1.00068 0.07783,-0.233711 1.190321,0.15738 1.286181,-0.0204 0.247829,-0.45979 0.23472,-0.807621 0.853054,-1.023065 0.194959,-0.06785 0.07508,0.271127 0.177856,0.377997 0.454987,0.47306 0.921583,0.505312 1.546352,0.529281 1.141035,1.178327 -0.234148,1.285497 1.990402,0.788127 0.499483,-0.908304 -0.08185,-0.70003 -0.338099,-1.244757 -0.831163,-1.767072 -1.015981,-2.339886 -2.869396,-3.538553 -0.369522,-0.238962 -1.08314,-0.104749 -1.304283,-0.46144 -0.770591,-1.242669 -0.445046,-3.482955 -1.062268,-4.817674 -1.473612,-0.850203 -1.007821,-2.792446 -2.603629,-3.53899 -0.475637,-0.281633 -0.573898,-0.279116 -0.831882,-0.729929 -0.0536,-0.09373 -1.197421,-1.480985 -0.617557,-1.622427 0.340176,-0.08293 -1.410273,0.608721 -1.585135,0.588204 -0.14366,-0.01695 -0.180518,-1.690276 -0.290178,-1.616488 -0.750001,0.504633 -1.735473,2.284139 -2.066057,1.785058 -0.315996,0.06566 -1.71928,0.19999 -1.819047,0.533463 -0.111859,0.373928 -0.975665,-0.850979 -1.189,-0.477409 -0.313656,0.549157 -0.309622,1.979142 -0.640015,2.515286 -0.192068,0.311703 -1.546305,-0.533304 -1.563088,-0.202206 -0.595654,0.251696 -0.474154,2.06972 -1.10092,1.718937 -0.536503,-0.30028 -0.952123,-1.021643 -1.720082,-0.864598 -1.955778,0.400048 -0.758082,-0.261998 -1.96218,-0.0098 -0.248746,0.05216 -2.28607,-0.869176 -3.509122,0.05539 z"
       id="path3082"
       inkscape:label="Thessaly"
       sodipodi:nodetypes="csssssccsccccsssscccssssssscsssssccsssccsssscssscssscc" /><path
       style="fill:#004305;fill-opacity:1;stroke-width:0.198319"
       d="m 57.192927,105.79143 c -0.208595,0.72912 0.801228,1.02938 0.473751,1.60135 -0.225981,0.39469 -0.969758,0.42398 -1.191248,0.86851 -1.162955,2.33407 2.801626,1.48755 2.951818,1.98441 0.09831,0.32523 -0.155293,1.17848 0.0262,1.42041 0.410705,0.54735 1.742889,0.0831 2.144081,0.78483 0.675949,1.18237 -0.748891,1.95479 -0.262193,3.08694 0.258111,0.60043 2.453204,-0.12048 1.825077,0.9975 -0.294077,0.52342 -1.049806,3.47113 -0.176152,3.842 3.003357,1.27487 4.767244,-1.96374 5.410202,-1.58963 0.295487,0.17194 0.217957,0.85378 0.490984,0.97129 1.176281,0.50646 0.938852,-0.17628 1.606294,1.03356 1.058393,-0.17179 2.800634,-0.34056 3.885712,-0.95283 0.47315,-0.267 1.114887,0.33849 1.320317,0.47465 0.06297,0.0416 0.80148,-0.37489 0.925384,-0.42949 0.462442,-0.20376 0.995969,-0.15587 1.432048,-0.33393 0.428461,-0.17496 -0.530767,-0.70865 -1.45348,-1.36654 -0.357046,-0.25458 -0.03205,9.8e-4 -0.313232,-0.24447 -0.866241,-0.75808 -0.562002,-0.53012 -0.02214,-1.47757 0.08533,-0.1497 1.299942,-1.24126 1.228464,-1.40575 -0.371367,-0.85462 -0.543766,-1.82544 -0.308575,-2.62095 0.345599,-1.16905 0.213986,-1.73479 -0.07084,-1.48343 -1.170876,1.03322 -2.16668,1.2801 -2.864086,1.10557 -0.682436,-0.17078 -0.688071,-0.78805 -0.95006,-1.20242 -0.366189,-0.57917 -0.259596,-1.29572 -0.03929,-2.3173 -0.300662,-0.94259 -1.38831,-0.97267 -2.218229,-1.54673 -0.709054,-0.49045 -0.914496,-0.91635 -0.549323,-1.65945 0.08687,-0.17685 -0.09119,-0.44285 0.0276,-0.80385 0.126929,-0.38575 -0.04389,-2.35951 -0.768478,-2.2332 -0.09857,-0.69582 -1.320191,1.04671 -1.853755,0.79764 -0.37957,-0.17715 -3.283365,-0.69747 -3.344579,-0.45679 -0.335004,1.3167 0.116763,0.9816 -0.631485,1.62723 -0.147952,0.12765 -1.239696,0.0433 -1.669351,0.003 -0.61831,-0.0569 -0.580384,0.47389 -0.927573,0.4841 -0.753593,0.0221 -1.619822,-1.04811 -1.513752,-0.63664 0.253876,0.98486 -0.04922,0.44454 -0.240659,0.77192 -0.16047,0.27438 -0.618284,-0.13899 -0.994698,-0.31561 -0.05368,-0.0253 -1.044074,0.0303 -1.111204,0.26492 z"
       id="path3084"
       sodipodi:nodetypes="ssssssssssccscsssssssssscssscssssssssss"
       inkscape:label="westGreece" /><path
       style="display:inline;fill:#004305;fill-opacity:1;stroke-width:0.131427"
       d="m 87.92729,109.37381 c 0,-1.74101 4.112028,1.02409 3.910785,-0.65708 -0.07484,-0.62538 -6.372272,-0.28816 -6.246087,-0.2472 0.652367,0.21192 3.11392,-0.26206 3.321686,-1.35192 0.138863,-0.72843 -0.794916,-0.19497 -1.018359,-0.42659 -0.325714,-0.33762 0.140198,-1.25461 -0.02036,-1.55226 -0.168192,-0.31179 -0.430166,-1.45386 -0.730583,-1.6629 -0.228913,-0.15925 -1.189994,0.85635 -1.420297,0.85635 -0.577444,0 0.154672,-0.64393 -0.199505,-1.41207 0.02176,-0.55383 -1.123,-1.47304 -1.317087,-1.86113 -0.413615,-0.82706 -1.708428,0.17572 -2.383793,0.15761 -0.311212,-0.009 -0.654429,1.65251 -0.773467,2.09537 -0.153242,0.57017 -0.952808,-0.12191 -1.153459,0.68266 -0.07902,0.31694 0.774673,-2.2163 0.368307,-2.08307 -0.417761,0.13688 -0.789513,1.6817 -1.056234,1.62395 -2.160947,-0.46797 0.05196,-0.74843 -0.799692,-1.27072 -0.290945,-0.17842 0.809516,-0.67146 0.597607,-1.08811 -0.120928,-0.23777 -2.415706,-0.45018 -2.612863,-0.61991 -0.127769,-0.11004 -2.373833,1.32496 -2.548192,1.44098 -0.349738,0.2327 -0.995328,0.38619 -1.261072,0.58584 -0.188795,0.14182 -1.786562,0.21796 -1.921179,0.43833 0.446148,0.74749 0.158105,2.48464 0.392256,3.17475 0.472447,1.39246 1.462072,1.6289 1.992517,2.74243 0.718283,1.50779 -0.354694,0.64889 3.622065,2.40676 0.461387,0.20398 0.143149,-0.6901 0.646041,0.46298 0.173577,0.39798 1.139371,0.12347 1.139371,0.61151 0,0.31166 0.564735,1.54599 0.423069,1.77969 -0.557349,0.91942 -1.457587,1.17811 -1.383281,2.38003 0.0073,0.12007 -0.0033,0.0936 -0.0033,0.14272 1.009275,0.0401 1.58257,0.881 2.371108,1.45643 0.111254,0.0814 0.928232,-0.51132 1.069454,-0.60216 0.410733,-0.26417 0.995731,0.70648 1.452836,0.32751 0.317167,-0.26295 -0.05171,-1.52829 0.414078,-1.69701 0.86957,-0.31499 0.745755,2.25545 0.937807,2.35997 1.321181,0.71897 0.728907,-1.05081 1.755338,-1.16236 -0.619747,1.63287 0.736423,0.90439 0.996843,1.47102 0.13871,0.30182 -0.359147,0.50301 -0.262936,0.84433 0.06309,0.22383 0.923372,0.24771 1.095691,0.32272 0.236777,0.10291 0.03435,0.66965 0.253393,0.77211 0.770269,0.36039 0.536332,-0.34705 0.941677,-0.64931 0.410618,-0.30616 0.530394,0.63038 0.765642,0.79401 0.486011,0.33816 0.97375,0.037 1.541234,0.5043 0.354856,0.0802 0.178538,-0.4593 0.375621,-0.58882 0.169807,-0.1116 0.418485,0.24218 0.497154,0.18866 0.516046,-0.35089 -0.951878,2.16371 -0.192366,1.81963 1.165731,-0.52808 2.193168,-1.05207 3.478596,-1.6088 0.04566,-0.0196 0.773279,-0.0986 0.854746,-0.47323 0.113929,-0.52392 -0.167188,-0.97224 0.06728,-1.4172 0.08629,-0.1636 0.163317,-1.38351 0.09766,-1.55207 -0.166918,-0.42866 0.385352,-1.51242 0.212452,-1.95024 -0.171855,-0.43517 0.284526,-1.90919 -0.09724,-2.23899 -0.167429,-0.14462 -1.789286,0.88761 -2.921184,-0.23159 -0.28083,-0.27766 -0.412267,-4.26603 -2.036519,-2.58623 -0.08315,0.0603 0.123246,-0.98158 0.06295,-1.10638 -0.970391,-2.00902 -0.666632,0.37613 -2.317732,-0.44218 -0.315635,-0.15643 -1.238554,0.44121 -1.583786,0.21702 z"
       id="path3086"
       sodipodi:nodetypes="cscssssscssssscssssscssssssscssssccsssssscssssssssssccscc"
       inkscape:label="centralGreece" /><path
       style="fill:#004305;fill-opacity:1;stroke-width:0.176519"
       d="m 96.308125,112.69049 c 1.224773,0.33824 0.335624,1.36775 0.407134,1.68352 0.06405,0.28296 0.530488,0.56974 0.629231,0.62861 0.323189,0.19266 0.897833,0.25936 0.879749,0.30843 -0.225031,0.61075 0.09556,-0.17693 0.544958,0.52648 0.216863,0.33936 0.889033,0.23208 1.566883,0.38841 1.79554,0.41426 4.36398,0.70284 5.40694,1.37662 0.29851,0.19287 -0.52469,0.66809 -0.46451,0.89739 0.0538,0.20545 0.73258,0.13831 1.00534,0.28434 0.86518,0.46301 -0.0326,1.02488 0.0781,1.38338 0.0804,0.2598 1.53447,0.79956 1.48312,0.90121 -0.23936,0.47474 -0.94542,0.65864 -0.68285,1.26839 0.18202,0.42269 1.98177,0.59484 2.38907,0.85524 0.46715,0.29866 -0.25186,1.41185 0.81786,1.9921 0.30064,0.16312 1.15637,0.10325 1.44898,0.0801 0.26734,-0.0215 0.19373,-0.4984 0.38451,-0.36211 2.11335,1.50914 3.89435,0.27609 4.70076,-1.05627 0.68675,-1.42274 -0.31845,-1.86237 -1.64919,-2.1001 -0.97879,-0.17488 -2.21157,-0.11416 -2.68002,-0.89856 -0.81366,-1.36245 0.38127,-2.27307 -0.28018,-3.73631 -0.18392,-0.40692 1.20623,-1.25353 1.5047,-2.00645 0.16671,-0.42046 -0.78732,-0.68224 -1.25401,-0.92581 -0.42621,-0.22249 -0.018,-1.1063 -0.68814,-1.45425 0.69209,-1.03276 -2.81134,-2.23647 -4.30876,-2.6169 -1.16993,-0.29722 -2.11739,-0.7355 -2.93808,-1.2391 -0.43031,-0.26404 -2.52507,0.21073 -2.98332,-0.0279 -2.975062,-1.54951 -1.90881,-0.22013 -2.08667,-1.79086 -0.0189,-0.16692 -1.996603,-0.43132 -2.225377,-0.55169 -0.377317,-0.19847 0.227667,-0.84344 -0.434358,-1.06641 -2.926564,-0.98576 -9.269542,1.00954 -9.699483,0.95771 0.04407,0.1297 0.37067,0.77363 0.743598,0.9976 0.71431,0.42901 2.392343,0.0378 3.124238,0.45689 0.547763,0.31371 0.315378,2.43631 0.660396,2.05873 1.678793,-1.83715 2.040213,0.8337 2.309705,2.07581 0.08492,0.3914 1.334597,0.38477 1.615996,0.70536 z"
       id="path3088"
       sodipodi:nodetypes="cssssscscscssssccssssscsssssscscsscc"
       inkscape:label="Evia" /><path
       style="display:inline;fill:#004305;fill-opacity:1;stroke-width:0.175227"
       d="m 88.826425,125.03596 c 0.847582,0.85939 -0.0084,1.77437 0.693002,2.70014 0.110169,0.14541 4.019117,-0.17889 4.489502,-0.40403 0.968809,-0.46382 1.164327,-1.38597 2.838482,-0.76117 0.460635,0.17188 -0.301984,0.71698 0.154055,0.95483 0.511048,0.26652 1.335214,0.10659 1.789904,0.39238 0.56645,0.35607 1.69581,1.92252 2.03407,2.54155 0.1311,0.23997 0.91935,-0.0861 1.00416,0.10713 0.57181,1.30199 1.25763,2.96626 3.13,2.57384 1.04483,-0.21899 0.93566,-2.51665 1.08862,-3.63008 0.0321,-0.23325 -0.53955,-0.15332 -0.67862,-0.35225 -0.26052,-0.37251 0.32175,-1.0925 0.17871,-1.39232 -1.13733,-2.38388 0.93201,-4.09133 1.4289,-5.80691 0.74737,-2.58048 -7.25526,-4.40825 -9.3709,-4.40825 -2.370483,1.2379 0.72524,4.0639 -0.654986,6.05858 -0.107714,0.15568 -1.042662,-1.69235 -1.199934,-1.84051 -0.77174,-0.72706 -0.937078,0.52999 -1.995764,-0.0382 -0.928033,0.14595 -0.461849,0.87134 -0.998608,1.59594 -0.553264,0.7469 -0.647675,-0.11675 -1.00825,0.005 -0.211748,0.63918 -0.439065,1.04193 -1.455443,1.24895 -0.399329,0.0815 -0.831756,0.52033 -1.4669,0.45522 z"
       id="path3090"
       inkscape:label="Attica"
       sodipodi:nodetypes="csssssssssssscsscscscc" /><path
       style="display:inline;fill:#004305;fill-opacity:1;stroke-width:0.129264"
       d="m 84.877492,126.76786 c 0.503166,-9.7e-4 1.399439,0.085 0.879938,-0.47109 -0.19898,-0.21295 -1.244047,-0.0394 -1.301849,-0.17646 -0.226735,-0.53787 0.414323,-0.42155 0.872678,-0.58808 0.21822,-0.0792 0.416076,-0.22379 0.641391,-0.28939 0.296767,-0.0864 1.926898,0.2579 2.32539,-0.0598 0.19248,0.12767 0.536939,0.47293 0.540848,0.8399 -0.02153,0.0862 0.08214,0.28855 0.04152,0.56301 -0.02952,0.19938 0.05683,0.47871 0.01084,0.70763 -0.07969,0.39626 0.05027,0.79258 0.09149,0.93835 0.161765,0.57157 -1.592311,-0.46853 -1.588849,0.16644 2.42e-4,0.0446 -0.511436,-1.20888 -0.439873,-1.17075 0.459645,0.24498 1.442844,0.8808 1.9976,0.87924 0.147652,0.16158 0.520772,0.85547 0.04289,0.73651 -0.696986,-0.1735 -0.794391,0.20239 -0.677789,0.61145 0.09056,0.31778 0.431114,0.0575 0.529262,0.72384 0.172483,1.17731 0.227579,1.16202 1.439967,1.80893 1.522642,0.8125 -0.4104,2.63722 -1.588642,2.11371 -1.12356,-0.49923 -2.118346,-1.24904 -2.960828,-1.88074 -0.248428,-0.18628 -1.105024,0.23985 -1.446636,0.0771 -0.285188,-0.13593 -1.249303,-0.9886 -1.830014,-0.7296 -0.156163,0.0697 0.06924,1.18316 0.111523,1.41585 0.716183,0.49048 2.06863,4.21238 2.226915,4.32789 0.217374,0.15862 1.144229,0.0805 1.328004,0.27538 0.7003,0.74324 0.09662,1.91695 0.605663,2.63789 0.404077,0.57222 1.176839,0.7672 0.967718,1.53522 -0.09674,0.35526 -0.625877,0.30966 -0.824492,0.5882 -0.312159,0.43773 0.880148,1.5247 0.320971,1.89769 -1.231837,0.82176 -2.584121,-0.42646 -3.012564,-1.20209 -0.04057,-0.0735 -0.54509,0.0101 -0.649961,-0.0704 -0.288745,-0.22124 0.330413,-0.33941 0.424817,-0.4019 0.224427,-0.14869 -0.157626,-1.08803 -0.203356,-1.23749 -0.875314,0.42461 -2.558067,-0.36431 -3.339202,-0.0551 -0.671143,0.26565 -0.515334,2.08335 -1.06153,2.08489 -0.533731,9.8e-4 -1.450455,0.2131 -1.990694,9.8e-4 -0.227706,-0.0889 -1.117389,-2.41171 -1.456676,-2.5636 -0.470267,-0.21045 -0.928407,-0.56593 -1.457065,-0.69107 -0.07443,-0.0176 -1.026893,-0.10798 -0.964004,-0.23249 0.634526,-1.25539 0.373226,-1.25675 -1.682028,-1.43243 -0.285617,0.36403 -0.479862,0.81114 -0.796786,1.14717 -0.719854,0.7633 1.69667,1.74805 -0.278266,2.47017 -0.245957,0.0899 -2.86617,-1.40531 -3.088917,-1.6969 -0.41916,-0.54868 0.81484,-0.40779 0.407205,-0.98869 -0.833317,-1.18752 -2.033068,-1.26103 -2.041885,-2.8773 2.722115,-1.77469 1.587942,-4.94598 -1.795288,-6.20215 -0.511239,-0.18981 -1.106026,0.22832 -1.65325,-0.0311 -0.615075,-0.29165 -0.22941,-1.58151 -1.968268,-2.29516 -0.254442,-0.26446 -0.484969,-0.82634 -0.300921,-1.16658 0.04721,-0.0873 1.208712,-0.19322 1.413765,-0.29244 0.691123,-0.33436 1.175595,-0.83626 1.629442,-1.33027 0.539752,-0.58755 -0.837247,-1.71498 0.24501,-1.97534 1.060717,-0.25515 3.486721,1.42317 4.435453,0.58524 1.041514,-0.91989 4.008052,-3.34447 5.68333,-1.531 1.952369,-0.58902 1.123491,1.40317 2.059751,1.68717 0.524619,0.15917 1.340206,-0.18581 1.849474,0.0304 0.338521,0.1436 0.242563,0.53676 0.534661,0.66132 0.478845,0.20426 1.636249,-0.34956 2.181312,-0.24827 1.790841,0.33283 3.036213,2.09565 4.560824,2.37595 z"
       id="path3092"
       sodipodi:nodetypes="csscsscssscsssccssssscssssscscscscsscccsssscsscssssscsssscc"
       inkscape:label="peloponnese" /></g><g
     inkscape:groupmode="layer"
     id="layer3"
     inkscape:label="fantasmas"
     style="stroke:none;stroke-opacity:1"><path
       style="opacity:0.56;fill:url(#radialGradient3360);fill-opacity:1;stroke:none;stroke-width:0.33627;stroke-opacity:1"
       d="m 154.45219,94.342013 c 0.73534,-3.306723 4.28197,-10.255402 8.91511,-11.5159 11.14419,-3.031842 27.48427,-1.451637 37.3389,-6.969388 14.15188,-7.923859 2.61651,-31.236945 -12.8475,-31.236945 -10.85019,0.645797 -8.49127,9.627725 -12.43657,15.126462 -8.462,11.79384 -27.55016,16.732261 -27.55016,31.78446"
       id="path11757" /><path
       style="opacity:0.498572;fill:url(#radialGradient4298);fill-opacity:1;stroke:none;stroke-width:0.298177;stroke-opacity:1"
       d="m 86.311386,159.31385 c -4.548664,1.36345 -5.906636,5.24971 -8.112348,8.43028 -5.801235,8.36515 3.777083,17.59086 -7.497091,29.20381 -5.870838,6.04723 -22.657483,-2.85715 -24.183282,-8.87903 -2.640973,-10.42313 9.450665,-13.3209 15.594797,-17.39053 8.508382,-5.63564 -1.225891,-11.19333 19.972681,-19.27396"
       id="path11759" /><path
       style="opacity:0.463409;fill:url(#radialGradient3382);fill-opacity:1;stroke:none;stroke-width:0.288366;stroke-opacity:1"
       d="M 90.10764,45.443021 C 100.46802,8.6593009 59.124423,10.039244 64.728157,30.080936 67.690892,40.67713 79.027778,35.567092 83.338262,47.587011"
       id="path11761"
       sodipodi:nodetypes="csc" /><path
       style="opacity:0.479898;fill:url(#radialGradient4058);fill-opacity:1;stroke:none;stroke-width:0.21211;stroke-opacity:1"
       d="m 165.49082,137.52987 c 5.58076,1.21319 10.26553,3.7471 14.18617,7.45165 5.59945,5.29085 17.43029,-0.72335 20.09288,7.67043 4.19278,13.21769 -16.65996,18.66023 -24.87652,12.76459 -7.9612,-5.71241 -7.72305,-16.10385 -16.38281,-20.20249"
       id="path11902" /><path
       style="opacity:0.335498;fill:url(#radialGradient4410);fill-opacity:1;stroke:none;stroke-width:0.238694;stroke-opacity:1"
       d="m 38.596413,92.131725 c -2.754418,0.122748 -5.429868,2.248762 -8.192371,1.084113 C 26.602453,91.61316 12.868831,83.96072 7.5531024,86.658892 0.72878843,90.122833 -3.3689734,101.7307 7.4887904,110.33086 7.7711118,110.5545 31.145559,105.99907 35.39385,105.87094"
       id="path11908"
       sodipodi:nodetypes="csssc" /><path
       style="opacity:0.346551;fill:url(#radialGradient3538);fill-opacity:1;stroke:none;stroke-width:0.264039;stroke-opacity:1"
       d="m 149.03223,23.348569 c -12.61626,10.089901 5.75532,21.076409 10.97696,11.297993 4.22696,-7.915773 -2.67947,-14.819571 -10.97696,-11.297993 z"
       id="path11963"
       sodipodi:nodetypes="csc" /></g><g
     inkscape:groupmode="layer"
     id="layer5"
     inkscape:label="olhi"><path
       style="opacity:0.651;fill:#000000;fill-opacity:1;stroke:none;stroke-width:0.427774;stroke-opacity:1"
       d="m 69.573074,27.608398 c -1.425801,-0.651985 -1.520556,2.792621 -1.26787,3.291298 0.306668,0.605206 1.100842,1.362485 1.580369,1.835666 0.697249,0.688019 1.605055,1.356321 2.562676,1.546263 1.222843,0.242547 2.849179,0.779265 2.849179,-0.973276 0,-0.297782 0.129899,-0.906761 0,-1.163116 -0.224682,-0.443409 -0.790888,-0.790057 -1.052154,-1.219737 -0.263743,-0.433753 -0.04379,-1.24513 -0.281104,-1.588351 -0.93289,-1.349213 -2.70338,-2.69623 -4.391096,-1.728747 z"
       id="path3817" /><path
       style="opacity:0.651;fill:#000000;fill-opacity:1;stroke:none;stroke-width:0.493499;stroke-opacity:1"
       d="m 76.174539,18.823269 c -0.513848,0.315302 -1.145215,0.491613 -1.541542,0.945903 -0.620925,0.711739 -0.271876,3.032274 0.401908,3.533535 0.445279,0.331265 2.049754,0.714754 2.705947,1.042844 1.976804,0.988387 1.451202,2.75419 4.29611,1.805856 0.632252,-0.210758 0.259299,-2.232913 0.259299,-2.859828 0,-2.80208 -3.573274,-4.707763 -6.121722,-4.46831 z"
       id="path3819" /><path
       style="opacity:0.651;fill:#000000;fill-opacity:1;stroke:none;stroke-width:0.520991;stroke-opacity:1"
       d="m 78.713409,37.212129 c -1.121207,-1.458593 -0.3813,-2.770585 0.37441,-4.037892 1.427337,-2.393604 7.21264,-0.641518 6.593521,1.820181 -0.38662,1.537244 -2.320934,0.975189 -3.291285,1.492883 -1.147418,0.612164 -2.505562,4.123765 -3.676646,0.724828 z"
       id="path3821" /><path
       style="opacity:0.651;fill:#000000;fill-opacity:1;stroke:none;stroke-width:0.524923;stroke-opacity:1"
       d="m 4.0343629,96.528924 c -1.4103625,0.232463 0.055499,5.300366 0.4767653,5.814186 0.5112541,0.62352 1.4730577,1.06495 2.0609217,1.35458 0.8547789,0.42112 1.8659621,0.6399 2.7023417,0.12462 1.0680284,-0.658 2.5842104,-1.22294 1.8005784,-3.76159 C 10.94182,99.629358 10.771456,98.640009 10.554897,98.375878 10.180322,97.919034 9.5810146,97.884229 9.1838706,97.477497 8.7829626,97.066873 8.5927609,95.709987 8.2530708,95.408686 6.9177398,94.224317 4.926121,93.734445 4.0343629,96.528973 Z"
       id="path3817-2" /><path
       style="opacity:0.651;fill:#000000;fill-opacity:1;stroke:none;stroke-width:0.524234;stroke-opacity:1"
       d="m 10.50486,88.672795 c -0.262237,0.660147 -0.6788404,1.242076 -0.7867094,1.980405 -0.168994,1.156712 1.1425074,3.45988 1.8953664,3.58725 0.497532,0.08423 1.928049,-0.49201 2.589666,-0.541748 1.993154,-0.149811 2.370272,2.09215 4.178652,-0.69709 0.401893,-0.619886 -0.794948,-2.584374 -1.07527,-3.26492 -1.25292,-3.041829 -4.908997,-2.900238 -6.801705,-1.063897 z"
       id="path3819-7" /><path
       style="opacity:0.651;fill:#000000;fill-opacity:1;stroke:none;stroke-width:0.35826;stroke-opacity:1"
       d="m 15.770542,100.83077 c -1.151408,-0.49612 -1.155945,-1.545415 -1.13614,-2.573105 0.0374,-1.941043 4.038125,-2.87587 4.500258,-1.172369 0.288587,1.0638 -1.041069,1.390721 -1.439368,2.03873 -0.470979,0.766256 -0.09187,3.360114 -1.92475,1.706744 z"
       id="path3821-0" /><path
       style="opacity:0.651;fill:#000000;fill-opacity:1;stroke:none;stroke-width:0.491761;stroke-opacity:1"
       d="m 184.55062,52.160827 c -0.14632,-1.872538 -3.50527,0.0573 -3.84724,0.614798 -0.41502,0.676609 -0.71197,1.951739 -0.90657,2.731056 -0.28296,1.133148 -0.43292,2.474507 -0.0965,3.586134 0.42953,1.419504 0.79514,3.433514 2.47799,2.401328 0.28593,-0.175383 0.94106,-0.398437 1.11687,-0.685033 0.30405,-0.495724 0.3302,-1.291008 0.60127,-1.816838 0.27363,-0.530814 1.1719,-0.779054 1.37291,-1.228954 0.79021,-1.768581 1.12457,-4.410323 -0.71868,-5.602491 z"
       id="path3817-3" /><path
       style="opacity:0.651;fill:#000000;fill-opacity:1;stroke:none;stroke-width:0.567316;stroke-opacity:1"
       d="m 196.56246,53.878644 c -0.58113,-0.350757 -1.09245,-0.906065 -1.74338,-1.052271 -1.01978,-0.229058 -3.05896,1.502063 -3.17528,2.500723 -0.0769,0.659977 0.42403,2.560915 0.46446,3.439215 0.12174,2.645915 -1.85854,3.13718 0.59318,5.548739 0.54487,0.535943 2.28458,-1.044399 2.88657,-1.413632 2.69066,-1.650325 2.58489,-6.503215 0.97445,-9.022774 z"
       id="path3819-5" /><path
       style="opacity:0.651;fill:#000000;fill-opacity:1;stroke:none;stroke-width:0.59892;stroke-opacity:1"
       d="m 180.28017,67.359627 c 0.79322,-2.029604 2.45385,-2.029857 4.08013,-1.987292 3.07163,0.0804 4.52316,7.152186 1.82395,7.955677 -1.68553,0.501755 -2.19367,-1.848708 -3.21641,-2.556855 -1.20938,-0.837366 -5.31706,-0.187059 -2.68767,-3.41153 z"
       id="path3821-6" /><path
       style="opacity:0.651;fill:#000000;fill-opacity:1;stroke:none;stroke-width:0.368497;stroke-opacity:1"
       d="m 194.04301,152.56755 c 1.63611,0.0488 0.31125,-2.24629 -0.13621,-2.50739 -0.54301,-0.3169 -1.61634,-0.60381 -2.27093,-0.78754 -0.95184,-0.26713 -2.09761,-0.46507 -3.09456,-0.33445 -1.27308,0.16677 -3.05423,0.24744 -2.33387,1.40226 0.12238,0.19624 0.24804,0.63219 0.47803,0.76644 0.39786,0.23217 1.08366,0.30935 1.51094,0.52272 0.43137,0.21538 0.55378,0.80878 0.92258,0.97156 1.44973,0.6399 3.70224,1.05465 4.92402,-0.0337 z"
       id="path3817-3-2" /><path
       style="opacity:0.651;fill:#000000;fill-opacity:1;stroke:none;stroke-width:0.505148;stroke-opacity:1"
       d="m 192.1914,161.63729 c 0.32236,-0.54927 0.79542,-1.00266 0.96709,-1.64775 0.26898,-1.01061 -0.87403,-3.29655 -1.63016,-3.53591 -0.49972,-0.15819 -2.00499,0.12171 -2.68304,0.0566 -2.04264,-0.19634 -2.23905,-2.27221 -4.31447,-0.0677 -0.46123,0.48992 0.5933,2.45264 0.82186,3.1103 1.02148,2.9395 4.7572,3.41933 6.83872,2.08457 z"
       id="path3819-5-9" /><path
       style="opacity:0.651;fill:#000000;fill-opacity:1;stroke:none;stroke-width:0.552014;stroke-opacity:1"
       d="m 181.44639,148.31884 c 2.11138,0.79431 1.89621,2.06937 1.63881,3.31414 -0.48608,2.35104 -8.38965,2.81993 -8.9161,0.67414 -0.32876,-1.33997 2.30149,-1.51552 3.20672,-2.23615 1.07043,-0.85213 0.89381,-4.06536 4.07057,-1.75213 z"
       id="path3821-6-1" /><path
       style="opacity:0.651;fill:#000000;fill-opacity:1;stroke:none;stroke-width:0.50831;stroke-opacity:1"
       d="m 59.47764,193.11724 c -0.903733,1.72254 3.517362,1.06561 4.169786,0.67554 0.791778,-0.47334 1.801536,-1.51998 2.431699,-2.15548 0.916274,-0.92403 1.816972,-2.07677 2.1054,-3.17887 0.368298,-1.40734 1.133284,-3.3264 -1.118339,-2.93875 -0.382586,0.0659 -1.158967,0.0568 -1.494349,0.25723 -0.580082,0.34681 -1.051699,1.05029 -1.615848,1.43452 -0.569514,0.38793 -1.601752,0.32388 -2.053712,0.66249 -1.776685,1.33117 -3.589381,3.589 -2.424495,5.24333 z"
       id="path3817-3-2-9" /><path
       style="opacity:0.651;fill:#000000;fill-opacity:1;stroke:none;stroke-width:0.492984;stroke-opacity:1"
       d="m 52.374617,186.59328 c 0.386339,0.49802 0.650554,1.11881 1.158998,1.49404 0.796549,0.58785 3.061166,0.14276 3.466526,-0.54877 0.267891,-0.45703 0.42545,-2.06967 0.660591,-2.73643 0.708465,-2.00859 2.542548,-1.55999 1.198514,-4.3508 -0.298688,-0.62026 -2.262462,-0.16397 -2.887487,-0.13755 -2.793595,0.11803 -4.192956,3.75381 -3.597233,6.27947 z"
       id="path3819-5-9-3" /><path
       style="opacity:0.651;fill:#000000;fill-opacity:1;stroke:none;stroke-width:0.584668;stroke-opacity:1"
       d="m 70.279293,180.03302 c -2.86836,1.44635 -4.492956,3.6824 -6.930565,2.06035 -2.262032,-0.81481 -0.513882,-7.22584 1.270357,-9.19031 1.383571,-0.20803 2.02999,2.46003 2.605566,3.54907 0.680604,1.2878 5.849481,0.32602 3.054642,3.58089 z"
       id="path3821-6-1-6"
       sodipodi:nodetypes="cccsc" /></g></svg>
